<?xml version="1.0" encoding="utf-8"?>
<!-- Generator: Adobe Illustrator 18.0.0, SVG Export Plug-In . SVG Version: 6.00 Build 0)  -->
<!DOCTYPE svg PUBLIC "-//W3C//DTD SVG 1.1//EN" "http://www.w3.org/Graphics/SVG/1.1/DTD/svg11.dtd">
<svg version="1.1" id="Layer_1" xmlns="http://www.w3.org/2000/svg" xmlns:xlink="http://www.w3.org/1999/xlink" x="0px" y="0px"
	 viewBox="0 0 50 50" enable-background="new 0 0 50 50" xml:space="preserve">
<path fill="none" stroke="#002145" stroke-width="2" stroke-miterlimit="10" d="M41.2,1H2.8C1.8,1,1,1.8,1,2.8V8h42V2.8
	C43,1.8,42.2,1,41.2,1z"/>
<polyline fill="none" stroke="#002145" stroke-width="2" stroke-linecap="round" stroke-linejoin="round" stroke-miterlimit="10" points="
	27,40 1,40 1,8 "/>
<line fill="none" stroke="#002145" stroke-width="2" stroke-linecap="round" stroke-linejoin="round" stroke-miterlimit="10" x1="43" y1="8" x2="43" y2="27"/>
<line fill="none" stroke="#002145" stroke-width="2" stroke-linejoin="round" stroke-miterlimit="10" x1="14" y1="16" x2="37" y2="16"/>
<line fill="none" stroke="#002145" stroke-width="2" stroke-linejoin="round" stroke-miterlimit="10" x1="7" y1="16" x2="11" y2="16"/>
<line fill="none" stroke="#002145" stroke-width="2" stroke-linejoin="round" stroke-miterlimit="10" x1="14" y1="21" x2="37" y2="21"/>
<line fill="none" stroke="#002145" stroke-width="2" stroke-linejoin="round" stroke-miterlimit="10" x1="7" y1="21" x2="11" y2="21"/>
<line fill="none" stroke="#002145" stroke-width="2" stroke-linejoin="round" stroke-miterlimit="10" x1="14" y1="26" x2="37" y2="26"/>
<line fill="none" stroke="#002145" stroke-width="2" stroke-linejoin="round" stroke-miterlimit="10" x1="7" y1="26" x2="11" y2="26"/>
<line fill="none" stroke="#002145" stroke-width="2" stroke-linejoin="round" stroke-miterlimit="10" x1="14" y1="31" x2="30" y2="31"/>
<line fill="none" stroke="#002145" stroke-width="2" stroke-linejoin="round" stroke-miterlimit="10" x1="7" y1="31" x2="11" y2="31"/>
<line fill="none" stroke="#002145" stroke-width="2" stroke-miterlimit="10" x1="35" y1="40" x2="45" y2="40"/>
<line fill="none" stroke="#002145" stroke-width="2" stroke-miterlimit="10" x1="40" y1="35" x2="40" y2="45"/>
<circle fill="none" stroke="#002145" stroke-width="2" stroke-linecap="round" stroke-miterlimit="10" cx="40" cy="40" r="9"/>
</svg>
