<?xml version="1.0" encoding="utf-8"?>
<!-- Generator: Adobe Illustrator 17.1.0, SVG Export Plug-In . SVG Version: 6.00 Build 0)  -->
<!DOCTYPE svg PUBLIC "-//W3C//DTD SVG 1.0//EN" "http://www.w3.org/TR/2001/REC-SVG-20010904/DTD/svg10.dtd">
<svg version="1.0" id="Layer_1" xmlns="http://www.w3.org/2000/svg" xmlns:xlink="http://www.w3.org/1999/xlink" x="0px" y="0px"
	 viewBox="0 0 50 50" enable-background="new 0 0 50 50" xml:space="preserve">
<path fill="none" stroke="#002145" stroke-width="2.0301" stroke-linecap="round" stroke-linejoin="round" stroke-miterlimit="10" d="
	M29,4.9c0,0,4.6-3.9,9.5-3.9c3.9,0,7.6,2.4,8.9,10.6c-3-3.3-7.7-4.6-10.7-4.6c-3.2,0.1-5.6,2.2-6.1,3.2C35.1,9.1,49,12.5,49,21.9
	c0,3.7-1.7,6.6-5,10.9c0.8-12.1-6.1-18.8-15-18.8c-4.7,0.7-16.3,3.2-18,18.9c-2.2-4.5-3-7.8-3-11.4c0-9.6,9.2-13,16.2-12.2
	c-3.9-4-13.1-3.1-16.2,4.2C8,6.5,12.6,1,19,1C22,1,26.3,2,29,4.9z"/>
<path fill="none" stroke="#002145" stroke-width="2" stroke-linecap="round" stroke-linejoin="round" stroke-miterlimit="10" d="
	M31,14.5c0,4.6-0.2,26.8-5.8,32.8"/>
<path fill="none" stroke="#002145" stroke-width="2" stroke-linecap="round" stroke-linejoin="round" stroke-miterlimit="10" d="
	M6.8,47.5c0,0,19.5-1.8,19.2-32.9"/>
<path fill="none" stroke="#002145" stroke-width="2" stroke-linecap="round" stroke-linejoin="round" stroke-miterlimit="10" d="
	M49,49c0,0-5.9-4-13-4c-7.1,0-12.2,4-20,4c-9.3,0-15-4-15-4"/>
</svg>
