<?xml version="1.0" encoding="utf-8"?>
<!-- Generator: Adobe Illustrator 17.1.0, SVG Export Plug-In . SVG Version: 6.00 Build 0)  -->
<!DOCTYPE svg PUBLIC "-//W3C//DTD SVG 1.0//EN" "http://www.w3.org/TR/2001/REC-SVG-20010904/DTD/svg10.dtd">
<svg version="1.0" id="Layer_1" xmlns="http://www.w3.org/2000/svg" xmlns:xlink="http://www.w3.org/1999/xlink" x="0px" y="0px"
	 viewBox="0 0 50 50" enable-background="new 0 0 50 50" xml:space="preserve">
<g>
	<path fill="#002145" stroke="none" d="M24.7,13c0.5,0,1.1,0,1.7,0c0.6,0,1.2,0,1.8,0.1c0.6,0.1,1.1,0.1,1.6,0.3c0.5,0.1,0.9,0.3,1.3,0.5c0.8,0.5,1.5,1.1,2,2
		c0.5,0.8,0.8,1.8,0.8,3.1c0,1.3-0.3,2.4-0.9,3.3c-0.6,0.9-1.5,1.6-2.6,2.1v0.1c1.5,0.3,2.6,1,3.4,2c0.8,1,1.2,2.3,1.2,3.8
		c0,0.9-0.2,1.7-0.5,2.6c-0.3,0.8-0.8,1.6-1.4,2.2c-0.6,0.6-1.4,1.2-2.3,1.5c-0.9,0.4-2,0.6-3.1,0.6H16V13H24.7z M25.6,23.3
		c1.8,0,3.1-0.3,3.9-1c0.8-0.6,1.2-1.6,1.2-2.9c0-0.9-0.1-1.5-0.4-2c-0.3-0.5-0.6-0.9-1.1-1.1c-0.5-0.3-1-0.4-1.6-0.5
		c-0.6-0.1-1.3-0.1-2-0.1h-6.4v7.6H25.6z M27.2,34.3c1.4,0,2.5-0.4,3.3-1.1c0.8-0.8,1.2-1.8,1.2-3.2c0-0.8-0.1-1.4-0.4-2
		c-0.3-0.5-0.7-0.9-1.2-1.2c-0.5-0.3-1-0.5-1.7-0.6c-0.6-0.1-1.3-0.2-1.9-0.2h-7.3v8.3H27.2z"/>
</g>
<rect fill="#002145" x="26" y="10" width="2" height="4"/>
<rect fill="#002145" x="20" y="10" width="2" height="4"/>
<rect fill="#002145" x="26" y="36" width="2" height="4"/>
<rect fill="#002145" x="20" y="36" width="2" height="4"/>
</svg>
