<?xml version="1.0" encoding="utf-8"?>
<!-- Generator: Adobe Illustrator 18.1.1, SVG Export Plug-In . SVG Version: 6.00 Build 0)  -->
<svg xmlns="http://www.w3.org/2000/svg" xmlns:xlink="http://www.w3.org/1999/xlink" version="1.1" id="Layer_1" x="0px" y="0px" viewBox="0 0 50 50" enable-background="new 0 0 50 50" xml:space="preserve" fill="#012145">
<rect x="25" y="10" width="2" height="4" fill="#012145"/>
<rect x="21" y="10" width="2" height="4" fill="#012145"/>
<rect x="25" y="36" width="2" height="4" fill="#012145"/>
<rect x="21" y="36" width="2" height="4" fill="#012145"/>
<g fill="#012145">
	<path d="M26.2,13c1,0,7.7-0.1,7.7,5.9c0,4.1-3.5,5.2-4.2,5.4v0.1c1.5,0.2,5.1,1.6,5.1,5.8c0,7-7.3,6.8-8.6,6.8H16V13H26.2z    M26.2,23.5c0.9,0,1.7-0.1,2.4-0.3c0.7-0.2,1.2-0.5,1.7-0.9c0.4-0.4,0.8-0.8,1-1.3c0.2-0.5,0.3-1,0.3-1.6c0-3-1.8-4.5-5.4-4.5h-7.9   v8.6H26.2z M26.2,35.1c0.9,0,1.7-0.1,2.4-0.2c0.8-0.1,1.4-0.4,2-0.8c0.6-0.4,1-0.9,1.4-1.5c0.3-0.6,0.5-1.4,0.5-2.4   c0-1.5-0.5-2.7-1.6-3.5c-1.1-0.8-2.7-1.2-4.7-1.2h-7.9v9.6H26.2z" fill="#012145"/>
</g>
<circle fill="none" stroke="#012145" stroke-width="2" stroke-miterlimit="10" cx="25" cy="25" r="23"/>
</svg>
