<?xml version="1.0" encoding="utf-8"?>
<!-- Generator: Adobe Illustrator 17.0.0, SVG Export Plug-In . SVG Version: 6.00 Build 0)  -->
<!DOCTYPE svg PUBLIC "-//W3C//DTD SVG 1.1//EN" "http://www.w3.org/Graphics/SVG/1.1/DTD/svg11.dtd">
<svg version="1.1" id="Layer_1" xmlns="http://www.w3.org/2000/svg" xmlns:xlink="http://www.w3.org/1999/xlink" x="0px" y="0px"
	 width="50px" height="50px" viewBox="0 0 50 50" enable-background="new 0 0 50 50" xml:space="preserve">

<path fill="none" stroke="#002145" stroke-width="2" stroke-linecap="round" stroke-linejoin="round" stroke-miterlimit="10" d="
	M6.292,42.252l2.698-1.76c1.492-0.953,2.32-1.118,4.249-0.121c1.867,0.964,7.608,3.963,9.043,4.662
	c4.411,2.147,6.303,0.225,8.434-1.01c1.818-1.052,14.691-9.616,16.044-10.576c2.112-1.497,2.759-3.018,1.798-4.275
	c-0.727-0.95-2.352-1.529-5.67,0.44c0.307-1.384-0.025-2.328-1.292-2.579c-1.123-0.222-2.834,0.206-4.322,1.244
	c0.729-3.069-3.23-2.402-4.98-1.36c-1.551,0.923-7,4.375-7,4.375"/>
<path fill="none" stroke="#002145" stroke-width="2" stroke-linecap="round" stroke-linejoin="round" stroke-miterlimit="10" d="
	M18,36c0,0,3.503,1,6.199,1c0,0,4.402,0,5.801,0c2.504,0,4-0.762,4-2.5c0-1.591-1.427-2.5-4-2.5c-2.354,0-6.935-1.165-8.254-1.956
	C20.138,29.079,19.425,26,13.464,26c-2.691,0-3.687,0.589-5.177,1.178C5.66,28.219,1,30.457,1,30.457"/>
<path fill="none" stroke="#002145" stroke-width="2" stroke-linecap="round" stroke-linejoin="round" stroke-miterlimit="10" d="
	M26,12c-3.313,0-6,2.687-6,6s2.687,6,6,6c3.313,0,6-2.687,6-6S29.313,12,26,12z"/>
<polygon fill="#002145" points="26.906,20.717 25.094,20.717 25.094,17.094 23.679,17.094 25.491,15.283 26.906,15.283 "/>
<path fill="none" stroke="#002145" stroke-width="2" stroke-linecap="round" stroke-linejoin="round" stroke-miterlimit="10" d="
	M31.687,15.99C31.79,15.997,31.895,16,32,16c2.761,0,5-2.239,5-5s-2.239-5-5-5c-2.761,0-5,2.239-5,5
	c0,0.358,0.038,0.707,0.109,1.044"/>
<polygon fill="#002145" points="32.755,13.264 31.245,13.264 31.245,10.245 30.066,10.245 31.576,8.736 32.755,8.736 "/>
<line fill="none" stroke="#002145" stroke-width="2" stroke-linecap="round" stroke-linejoin="round" stroke-miterlimit="10" x1="42.882" y1="29.615" x2="33.849" y2="35.691"/>
<line fill="none" stroke="#002145" stroke-width="2" stroke-linecap="round" stroke-linejoin="round" stroke-miterlimit="10" x1="37.271" y1="28.293" x2="31.702" y2="32.132"/>
</svg>
