<?xml version="1.0" encoding="utf-8"?>
<!-- Generator: Adobe Illustrator 17.0.0, SVG Export Plug-In . SVG Version: 6.00 Build 0)  -->
<!DOCTYPE svg PUBLIC "-//W3C//DTD SVG 1.1//EN" "http://www.w3.org/Graphics/SVG/1.1/DTD/svg11.dtd">
<svg version="1.1" id="Layer_1" xmlns="http://www.w3.org/2000/svg" xmlns:xlink="http://www.w3.org/1999/xlink" x="0px" y="0px"
	 width="50px" height="50px" viewBox="0 0 50 50" enable-background="new 0 0 50 50" xml:space="preserve">

<path fill="none" stroke="#002145" stroke-width="2" stroke-linecap="round" stroke-linejoin="round" stroke-miterlimit="10" d="
	M37.524,2.065C32.014,1.431,27,5.382,27,11.522c0,7.89,1.082,10.862,0.669,20.188c-0.072,1.623-0.275,2.561-0.467,6.233
	c-0.193,3.671,0.103,9.232,6.451,9.963c7.546,0.87,9.139-4.468,9.624-7.542c0,0,0.584-3.491,1.064-5.847
	c1.323-6.492,3.539-11.266,4.398-16.698C49.9,10.473,47.37,3.201,37.524,2.065z"/>
<path fill="#002145" d="M43.049,31.286c-2.84,4.217-5.532,0.092-2.809-0.854C44.545,28.936,44.011,15.848,38,10
	c-4.145,4.12-8.451,12.636-4.899,17.913c2.08,3.093-1.957,4.797-2.538,0.528c-0.185-1.356-0.451-2.283-0.451-7.302
	C30.112,17.024,32.794,9.413,38,7C48.818,13.925,44.172,29.618,43.049,31.286z"/>
<path fill="none" stroke="#002145" stroke-width="2" stroke-linecap="round" stroke-linejoin="round" stroke-miterlimit="10" d="
	M1.261,17.818c0.859,5.431,3.075,10.206,4.398,16.698c0.48,2.357,1.064,5.847,1.064,5.847c0.484,3.075,2.078,8.412,9.624,7.542
	c6.348-0.731,6.644-6.292,6.451-9.963c-0.193-3.671-0.396-4.61-0.467-6.233C21.918,22.384,23,19.413,23,11.522
	c0-6.14-5.014-10.091-10.524-9.457C2.63,3.201,0.1,10.473,1.261,17.818z"/>
<path fill="#002145" d="M12,7c5.206,2.413,7.888,10.024,7.888,14.139c0,5.019-0.266,5.945-0.451,7.302c-0.58,4.269-4.618,2.565-2.538-0.528
	C20.451,22.636,16.145,14.12,12,10c-6.011,5.848-6.545,18.936-2.24,20.432c2.723,0.946,0.031,5.072-2.809,0.854
	C5.828,29.618,1.182,13.925,12,7z"/>
</svg>
