<?xml version="1.0" encoding="utf-8"?>
<!-- Generator: Adobe Illustrator 16.0.0, SVG Export Plug-In . SVG Version: 6.00 Build 0)  -->
<!DOCTYPE svg PUBLIC "-//W3C//DTD SVG 1.1//EN" "http://www.w3.org/Graphics/SVG/1.1/DTD/svg11.dtd">
<svg version="1.1" id="Layer_1" xmlns="http://www.w3.org/2000/svg" xmlns:xlink="http://www.w3.org/1999/xlink" x="0px" y="0px"
	 width="50px" height="50px" viewBox="0 0 50 50" enable-background="new 0 0 50 50" xml:space="preserve">
<polyline fill="none" stroke="#002145" stroke-width="2" stroke-linecap="round" stroke-miterlimit="10" points="20,23 2,23 2,14 
	48,14 48,23 30,23 "/>
<rect x="20" y="14" fill="none" stroke="#002145" stroke-width="2" stroke-linecap="round" stroke-miterlimit="10" width="10" height="34"/>

<path fill="none" stroke="#002145" stroke-width="2" stroke-linecap="round" stroke-miterlimit="10" d="M20,23H4v25h42V23H30"/>
<path fill="none" stroke="#002145" stroke-width="2" stroke-linecap="round" stroke-linejoin="round" stroke-miterlimit="10" d="
	M25,13c0,0-3.582,0-8,0s-9-2.581-9-7c0-1.828,0.878-4,4.319-4C19.236,2,19.363,13,25,13z"/>
<path fill="none" stroke="#002145" stroke-width="2" stroke-linecap="round" stroke-linejoin="round" stroke-miterlimit="10" d="
	M25,13c0,0,3.582,0,8,0s9-2.581,9-7c0-1.828-0.878-4-4.319-4C30.764,2,30.637,13,25,13z"/>
</svg>
