<svg xmlns="http://www.w3.org/2000/svg" xmlns:xlink="http://www.w3.org/1999/xlink" version="1.1" id="Layer_1" x="0px" y="0px" viewBox="0 0 50 50" enable-background="new 0 0 50 50" xml:space="preserve">
<style>
	.style0{
		stroke-linejoin:	round;
		stroke:	#82888a;
		stroke-linecap:	round;
		stroke-miterlimit:	10;
		stroke-width:	2;
		fill:	none;
	}
	.style1{
		stroke-linejoin:	round;
		stroke:	#82888a;
		stroke-width:	2;
		stroke-miterlimit:	10;
		fill:	none;
	}
</style><g>
	<path d=" M25 1C11.8 1 1 11.8 1 25s10.8 24 24 24c13.2 0 24-10.8 24-24S38.2 1 25 1z" class="style0"/>
</g>
<path d="M11 23.3c2 0 3.1-2.6 5-4.9 c2.2-2.6 6.4-3.7 7-10c0.3-2.5 2.8-1.4 3.6 0c1.3 2.2-0.2 4.9-1.3 7.2c-0.9 2-0.8 4.2 1.8 3.9c3-0.4 4.8-0.9 7.4-0.9 c1.8 0 2.8 1.2 2.8 2.2c0 0.8-0.2 2.1-0.2 2.1s1.8 0.6 1.8 2.4c0 1.7-1.6 2.5-1.6 2.5s1.6 0.6 1.6 2.3c0 1.8-2.1 2.6-2.1 2.6 s0.6 0.8 0.6 1.9c0 1 0.1 3.3-9.4 3.3c-12.6 0-11.6-2.3-17-2.3" class="style1"/>
</svg>
