<?xml version="1.0" encoding="utf-8"?>
<!-- Generator: Adobe Illustrator 18.1.1, SVG Export Plug-In . SVG Version: 6.00 Build 0)  -->
<svg version="1.1" id="Layer_1" xmlns="http://www.w3.org/2000/svg" xmlns:xlink="http://www.w3.org/1999/xlink" x="0px" y="0px"
	 viewBox="0 0 50 50" enable-background="new 0 0 50 50" xml:space="preserve">
<path fill="none" stroke="#002145" stroke-width="2" stroke-miterlimit="10" d="M43,44H7c-1.1,0-2-0.9-2-2V16c0-1.1,0.9-2,2-2h36
	c1.1,0,2,0.9,2,2v26C45,43.1,44.1,44,43,44z"/>
<rect x="16" y="23" fill="none" stroke="#002145" stroke-width="2" stroke-miterlimit="10" width="18" height="12"/>
<line fill="none" stroke="#002145" stroke-width="2" stroke-miterlimit="10" x1="27" y1="14" x2="27" y2="11"/>
<line fill="none" stroke="#002145" stroke-width="2" stroke-miterlimit="10" x1="23" y1="14" x2="23" y2="11"/>
<line fill="none" stroke="#002145" stroke-width="2" stroke-miterlimit="10" x1="5" y1="29" x2="14" y2="29"/>
<line fill="none" stroke="#002145" stroke-width="2" stroke-miterlimit="10" x1="36" y1="29" x2="45" y2="29"/>
<path fill="none" stroke="#002145" stroke-width="2" stroke-miterlimit="10" d="M20,6v4c0,0.6,0.4,1,1,1h8c0.6,0,1-0.4,1-1V6
	c0-0.6-0.4-1-1-1h-8C20.4,5,20,5.4,20,6z"/>
<circle cx="25" cy="8" r="1"/>
</svg>
