<svg xmlns="http://www.w3.org/2000/svg" viewBox="0 0 50 50" enable-background="new 0 0 50 50" width="100" height="100" style="fill: rgb(89, 146, 216);">
    <path style="text-indent:0;text-align:start;line-height:normal;text-transform:none;block-progression:tb;-inkscape-font-specification:Bitstream Vera Sans" d="M 24.875 4 A 1.0001 1.0001 0 0 0 24.53125 4.125 L 3.53125 15.125 A 1.0001 1.0001 0 0 0 3 16 L 3 19 A 1.0001 1.0001 0 0 0 4 20 L 6 20 L 6 22 A 1.0001 1.0001 0 0 0 7 23 L 7 38 L 5 38 A 1.0001 1.0001 0 0 0 4.90625 38 A 1.0001 1.0001 0 0 0 4.8125 38 A 1.0001 1.0001 0 0 0 4 39 L 4 41 L 3 41 A 1.0001 1.0001 0 0 0 2 42 L 2 45 A 1.0001 1.0001 0 0 0 3 46 L 47 46 A 1.0001 1.0001 0 0 0 48 45 L 48 42 A 1.0001 1.0001 0 0 0 47 41 L 46 41 L 46 39 A 1.0001 1.0001 0 0 0 45 38 L 43 38 L 43 23 A 1.0001 1.0001 0 0 0 44 22 L 44 20 L 46 20 A 1.0001 1.0001 0 0 0 47 19 L 47 16 A 1.0001 1.0001 0 0 0 46.46875 15.125 L 25.46875 4.125 A 1.0001 1.0001 0 0 0 24.875 4 z M 25 6.125 L 45 16.59375 L 45 18 L 13.15625 18 L 6.8125 18 L 5 18 L 5 16.59375 L 25 6.125 z M 25 9 C 22.802706 9 21 10.802706 21 13 C 21 15.197294 22.802706 17 25 17 C 27.197294 17 29 15.197294 29 13 C 29 10.802706 27.197294 9 25 9 z M 25 11 C 26.116414 11 27 11.883586 27 13 C 27 14.116414 26.116414 15 25 15 C 23.883586 15 23 14.116414 23 13 C 23 11.883586 23.883586 11 25 11 z M 8 20 L 12 20 L 12 21 L 8 21 L 8 20 z M 14 20 L 16 20 L 16 22 A 1.0001 1.0001 0 0 0 17 23 L 17 38 L 13 38 L 13 23 A 1.0001 1.0001 0 0 0 14 22 L 14 20 z M 18 20 L 22 20 L 22 21 L 18 21 L 18 20 z M 24 20 L 26 20 L 26 22 A 1.0001 1.0001 0 0 0 27 23 L 27 38 L 23 38 L 23 23 A 1.0001 1.0001 0 0 0 24 22 L 24 20 z M 28 20 L 32 20 L 32 21 L 28 21 L 28 20 z M 34 20 L 36 20 L 36 22 A 1.0001 1.0001 0 0 0 37 23 L 37 38 L 33 38 L 33 23 A 1.0001 1.0001 0 0 0 34 22 L 34 20 z M 38 20 L 42 20 L 42 21 L 38 21 L 38 20 z M 9 23 L 11 23 L 11 38 L 9 38 L 9 23 z M 19 23 L 21 23 L 21 38 L 19 38 L 19 23 z M 29 23 L 31 23 L 31 38 L 29 38 L 29 23 z M 39 23 L 41 23 L 41 38 L 39 38 L 39 23 z M 6 40 L 44 40 L 44 42 A 1.0001 1.0001 0 0 0 45 43 L 46 43 L 46 44 L 4 44 L 4 43 L 5 43 A 1.0001 1.0001 0 0 0 6 42 L 6 40 z"/>
</svg>