<svg xmlns="http://www.w3.org/2000/svg" width="50" height="50" viewBox="0 0 50 50" style="fill: rgb(51, 51, 51);">
    <path style="text-indent:0;text-align:start;line-height:normal;text-transform:none;block-progression:tb;-inkscape-font-specification:Bitstream Vera Sans" d="M 24.90625 -0.03125 A 1.0001 1.0001 0 0 0 24.78125 0 A 1.0001 1.0001 0 0 0 24 1 L 24 4.03125 C 11.312125 4.471774 1 13.210923 1 26 A 1.0001 1.0001 0 0 0 2.84375 26.53125 C 2.84375 26.53125 5.0349378 23 10 23 C 12.779147 23 15.218564 24.418426 16.65625 26.5625 A 1.0001 1.0001 0 0 0 17.46875 27 L 17.53125 27 A 1.0001 1.0001 0 0 0 18.34375 26.5625 C 19.606218 24.678569 21.63796 23.355809 24 23.0625 L 24 43 C 24 45.773465 21.772503 48 19 48 C 16.227497 48 14 45.773465 14 43 A 1.0001 1.0001 0 1 0 12 43 C 12 46.854535 15.146503 50 19 50 C 22.853497 50 26 46.854535 26 43 L 26 23.0625 C 28.361836 23.355736 30.392755 24.678204 31.65625 26.5625 A 1.0001 1.0001 0 0 0 32.46875 27 L 32.53125 27 A 1.0001 1.0001 0 0 0 33.34375 26.5625 C 34.780374 24.418683 37.219744 23 40 23 C 43.960533 23 47.25 26.65625 47.25 26.65625 A 1.0001 1.0001 0 0 0 49 26 C 48.997967 13.210992 38.687775 4.4717774 26 4.03125 L 26 1 A 1.0001 1.0001 0 0 0 24.90625 -0.03125 z M 25 6 C 36.405732 6 45.517081 12.944644 46.75 23.59375 C 45.207672 22.351075 43.037479 21 40 21 C 36.988654 21 34.333374 22.388302 32.5 24.5 C 30.666273 22.388542 28.011346 21 25 21 C 21.988654 21 19.333374 22.388302 17.5 24.5 C 15.666061 22.388468 13.01057 21 10 21 C 6.9448444 21 4.7476226 22.134976 3.28125 23.28125 C 4.6541833 12.808608 13.705313 6 25 6 z" color="#000" overflow="visible" enable-background="accumulate" font-family="Bitstream Vera Sans"/>
</svg>