<?xml version="1.0" encoding="utf-8"?>
<!-- Generator: Adobe Illustrator 16.0.0, SVG Export Plug-In . SVG Version: 6.00 Build 0)  -->
<!DOCTYPE svg PUBLIC "-//W3C//DTD SVG 1.1//EN" "http://www.w3.org/Graphics/SVG/1.1/DTD/svg11.dtd">
<svg version="1.1" id="Layer_1" xmlns="http://www.w3.org/2000/svg" xmlns:xlink="http://www.w3.org/1999/xlink" x="0px" y="0px"
	 width="50px" height="50px" viewBox="0 0 50 50" enable-background="new 0 0 50 50" xml:space="preserve">

<path fill="none" stroke="#002145" stroke="#000000" stroke-width="2" stroke-linecap="round" stroke-miterlimit="10" d="M18,47c-1.104,0-2-0.896-2-2
	V23c0-1.104,0.896-2,2-2h28c1.104,0,2,0.896,2,2v22c0,1.104-0.896,2-2,2H18z"/>
<path fill="none"  stroke="#002145" stroke="#000000" stroke-width="2" stroke-linecap="round" stroke-miterlimit="10" d="M42,21c0-1.045,0-5.955,0-7
	c0-5.523-4.477-10-10-10S22,8.477,22,14c0,1.045,0,5.955,0,7"/>
<path fill="#002145" d="M35,32c0-1.657-1.343-3-3-3s-3,1.343-3,3c0,0.885,0.391,1.673,1,2.222V37c0,1.104,0.896,2,2,2s2-0.896,2-2v-2.778
	C34.609,33.673,35,32.885,35,32z"/>
</svg>
