<svg xmlns="http://www.w3.org/2000/svg" viewBox="0 0 50 50" width="100" height="100" style="fill: rgb(89, 146, 216);">
    <path d="M 11.8125 2 A 1.0001 1.0001 0 0 0 11 3 L 11 24 L 3 24 A 1.0001 1.0001 0 0 0 2.28125 25.71875 L 24.28125 47.71875 A 1.0001 1.0001 0 0 0 25.71875 47.71875 L 47.71875 25.71875 A 1.0001 1.0001 0 0 0 47 24 L 39 24 L 39 3 A 1.0001 1.0001 0 0 0 38 2 L 12 2 A 1.0001 1.0001 0 0 0 11.90625 2 A 1.0001 1.0001 0 0 0 11.8125 2 z M 13 4 L 37 4 L 37 25 A 1.0001 1.0001 0 0 0 38 26 L 44.5625 26 L 25 45.5625 L 5.4375 26 L 12 26 A 1.0001 1.0001 0 0 0 13 25 L 13 4 z M 24 11 L 24 13.21875 C 22.351 13.41575 19.46875 14.77375 19.46875 18.21875 C 19.46875 24.63075 28.8125 21.30425 28.8125 26.15625 C 28.8125 27.78825 28.094 29.21875 25 29.21875 C 21.875 29.21875 21.02825 26.843 21.03125 25.5 L 18.96875 25.5 C 19.30575 29.826 22.286 30.8095 24 31.0625 L 24 33 L 26 33 L 26 31.09375 C 27.483 30.95075 30.96875 29.8735 30.96875 25.9375 C 30.96875 22.6295 28.2785 21.70275 25.6875 21.09375 C 23.5565 20.59275 21.65625 20.044 21.65625 18 C 21.65625 17.088 22.016 15.09375 25 15.09375 C 27.062 15.09375 28.08625 16.38475 28.40625 17.96875 L 30.4375 17.96875 C 29.8355 15.74975 28.889 13.76725 26 13.28125 L 26 11 L 24 11 z"/>
</svg>