<svg xmlns="http://www.w3.org/2000/svg" width="100" height="100" viewBox="0 0 50 50" style="fill: rgb(89, 146, 216);">
    <path style="text-indent:0;text-align:start;line-height:normal;text-transform:none;block-progression:tb;-inkscape-font-specification:Bitstream Vera Sans" d="M 18.5 2.5625 C 14.367061 2.5625 11 5.9326671 11 10.0625 C 11 11.221767 11.273128 12.33445 11.75 13.3125 L 13.53125 12.4375 C 13.184122 11.72555 13 10.917233 13 10.0625 C 13 7.0123329 15.446939 4.5625 18.5 4.5625 C 21.546158 4.5625 24 7.0134471 24 10.0625 L 26 10.0625 C 26 5.9315529 22.627842 2.5625 18.5 2.5625 z M 37.1875 6.9375 A 1.0001 1.0001 0 0 0 37.0625 6.96875 A 1.0001 1.0001 0 0 0 37 7 C 34.464544 7.6361038 31.563721 9.1552207 29.71875 12.59375 C 27.964086 12.216919 26.171114 11.9375 24.25 11.9375 C 18.562751 11.9375 14.153424 13.708439 10.6875 16.40625 C 8.9195851 17.782871 7.5293057 19.672802 6.65625 22 C 6.3479706 21.894965 5.936158 21.724065 5.46875 21.40625 C 4.6822731 20.871483 4 20.137195 4 18.78125 C 4 17.702646 4.5053555 16.799305 5.34375 16.4375 A 1.0001 1.0001 0 0 0 4.9375 14.5 A 1.0001 1.0001 0 0 0 4.5625 14.59375 C 2.9028945 15.309945 2 17.029854 2 18.78125 C 2 20.876305 3.2172269 22.296517 4.34375 23.0625 C 5.0380518 23.534593 5.6328192 23.768542 6.0625 23.90625 C 5.723127 25.387841 5.5827117 27.026883 5.65625 28.78125 C 5.8427483 33.236117 8.8586526 36.499634 11.125 38.3125 A 1.0001 1.0001 0 0 0 11.15625 38.3125 C 11.360509 38.473792 11.420475 38.565495 11.4375 38.59375 C 11.45453 38.62201 11.49818 38.5591 11.40625 38.84375 C 11.107411 39.764321 10.53125 41.15625 10.53125 41.15625 A 1.0001 1.0001 0 0 0 10.53125 41.1875 C 9.9992591 42.582009 10.702113 44.157577 12.09375 44.6875 A 1.0001 1.0001 0 0 0 12.09375 44.71875 L 15.3125 45.90625 C 16.705781 46.437773 18.314265 45.73738 18.84375 44.34375 C 18.84375 44.34375 19.243376 43.217595 19.59375 42.28125 C 19.647586 42.138882 19.689208 42.103988 19.71875 42.0625 C 19.75932 42.064831 19.763179 42.079078 19.84375 42.09375 C 20.478549 42.209439 21.894486 42.625 24.25 42.625 C 26.653499 42.625 28.0499 42.384657 28.6875 42.34375 C 28.811478 42.335797 28.864324 42.345696 28.90625 42.34375 C 28.920589 42.372152 28.919835 42.392992 28.9375 42.4375 C 28.9422 42.45146 28.9328 42.45481 28.9375 42.46875 C 29.259715 43.424362 29.645297 44.317945 29.65625 44.34375 C 29.66185 44.35876 29.68161 44.36015 29.6875 44.375 C 30.230306 45.742252 31.776563 46.43081 33.15625 45.90625 L 36.375 44.71875 A 1.0001 1.0001 0 0 0 36.375 44.6875 C 37.768694 44.158587 38.471343 42.582737 37.9375 41.1875 L 37.4375 39.84375 A 1.0001 1.0001 0 0 0 37.34375 39.6875 C 37.34375 39.6875 37.37512 39.6835 37.375 39.6875 C 37.374876 39.6915 37.238289 39.73858 37.5625 39.5625 C 39.992188 38.240368 41.852977 36.207602 43.03125 33.75 C 43.141243 33.518684 43.232918 33.354853 43.3125 33.28125 C 43.39208 33.20765 43.43713 33.15625 43.75 33.15625 L 45.375 33.15625 C 46.813411 33.15625 48 31.969267 48 30.53125 L 48 25.65625 C 48 24.217444 46.815643 23.03125 45.375 23.03125 L 43.75 23.03125 C 43.497017 23.03125 43.429824 23.009883 43.40625 23 C 42.911889 20.119357 40.969173 16.517104 36.6875 14.6875 C 36.73659 12.628388 37.193347 10.998345 38.1875 8.3125 A 1.0001 1.0001 0 0 0 37.1875 6.9375 z M 35.625 9.75 C 35.01921 11.631056 34.590866 13.323969 34.625 15.28125 A 1.0001 1.0001 0 0 0 35.3125 16.21875 C 39.497988 17.680087 41.03972 20.933193 41.4375 23.4375 C 41.591084 24.39121 42.605616 25.03125 43.75 25.03125 L 45.375 25.03125 C 45.726357 25.03125 46 25.301056 46 25.65625 L 46 30.53125 C 46 30.883233 45.728589 31.15625 45.375 31.15625 L 43.75 31.15625 C 43.01387 31.15625 42.350418 31.430603 41.9375 31.8125 C 41.524582 32.194397 41.341757 32.616316 41.21875 32.875 C 40.205023 34.989398 38.679312 36.663382 36.625 37.78125 C 35.824211 38.216167 35.393874 39.01825 35.375 39.625 C 35.35888 40.143224 35.535239 40.423452 35.59375 40.53125 L 35.5625 40.53125 L 35.625 40.6875 L 36.0625 41.90625 C 36.206657 42.283013 36.03856 42.698663 35.65625 42.84375 L 32.4375 44.0625 C 32.054168 44.208244 31.642004 44.002118 31.5 43.625 A 1.0001 1.0001 0 0 0 31.5 43.59375 C 31.5 43.59375 31.108806 42.697631 30.8125 41.8125 C 30.663861 41.377222 30.452965 40.895256 29.96875 40.59375 C 29.484535 40.292244 29.00745 40.315203 28.5625 40.34375 C 27.6726 40.40084 26.523501 40.625 24.25 40.625 C 22.104514 40.625 21.045201 40.281311 20.1875 40.125 C 19.758649 40.04684 19.230269 39.976685 18.6875 40.28125 C 18.144731 40.585815 17.942991 41.083389 17.75 41.59375 C 17.404374 42.517405 16.96875 43.625 16.96875 43.625 C 16.824235 44.00537 16.409969 44.206977 16.03125 44.0625 L 12.8125 42.84375 C 12.434137 42.699673 12.262241 42.283741 12.40625 41.90625 C 12.42362 41.86482 12.970638 40.521855 13.3125 39.46875 C 13.542568 38.756397 13.443975 38.039995 13.15625 37.5625 C 12.868525 37.085005 12.479741 36.832708 12.375 36.75 C 10.353347 35.132866 7.8057517 32.258633 7.65625 28.6875 C 7.4439505 23.622776 9.182044 20.090006 11.90625 17.96875 C 15.064326 15.510561 18.967249 13.9375 24.25 13.9375 C 26.266082 13.9375 28.170709 14.185309 29.96875 14.625 A 1.0001 1.0001 0 0 0 31.125 14.0625 C 32.24594 11.59051 33.905667 10.497916 35.625 9.75 z M 36.46875 23.09375 C 35.40975 23.09375 34.5625 23.945 34.5625 25 C 34.5625 26.057 35.40975 26.9375 36.46875 26.9375 C 37.52475 26.9375 38.376 26.056 38.375 25 C 38.375 23.945 37.52475 23.09375 36.46875 23.09375 z" color="#000" overflow="visible" enable-background="accumulate" font-family="Bitstream Vera Sans"/>
</svg>