<?xml version="1.0" encoding="utf-8"?>
<!-- Generator: Adobe Illustrator 18.0.0, SVG Export Plug-In . SVG Version: 6.00 Build 0)  -->
<!DOCTYPE svg PUBLIC "-//W3C//DTD SVG 1.0//EN" "http://www.w3.org/TR/2001/REC-SVG-20010904/DTD/svg10.dtd">
<svg version="1.0" id="Layer_1" xmlns="http://www.w3.org/2000/svg" xmlns:xlink="http://www.w3.org/1999/xlink" x="0px" y="0px"
	 viewBox="0 0 50 50" enable-background="new 0 0 50 50" xml:space="preserve">
<polygon fill="#002145"  points="20,40 16,40 16,29 13.1,29 17.1,25 20,25 "/>
<path fill="none" stroke="#002145" stroke-width="2" stroke-linecap="round" stroke-linejoin="round" stroke-miterlimit="10" d="
	M34.6,26.9C35,27,35.5,27,36,27c7.2,0,13-5.8,13-13S43.2,1,36,1c-7.2,0-13,5.8-13,13c0,0.5,0,0.9,0.1,1.4"/>
<polygon fill="#002145"  points="37.5,20.1 34.5,20.1 34.5,11.7 32.3,11.7 35.3,8.7 37.5,8.7 "/>
<g>
	<path fill="#002145"  d="M15.3,16.2c0.9-0.1,1.8-0.2,2.7-0.2c8.8,0,16,7.2,16,16c0,0.9-0.1,1.8-0.2,2.7l1.7,1.7C35.8,35,36,33.5,36,32
		c0-9.9-8.1-18-18-18c-1.5,0-3,0.2-4.3,0.6L15.3,16.2z"/>
	<path  fill="#002145"  d="M33.1,37.4C30.9,43.5,24.9,48,18,48C9.2,48,2,40.8,2,32c0-6.9,4.5-12.9,10.6-15.1l-1.6-1.6C4.6,18.1,0,24.5,0,32
		c0,9.9,8.1,18,18,18c7.5,0,13.9-4.6,16.6-11.1L33.1,37.4z"/>
</g>
<line stroke="#002145"  stroke="none" stroke-width="2" stroke-linecap="round" stroke-linejoin="round" stroke-miterlimit="10" x1="1" y1="1" x2="49" y2="49"/>
</svg>
