<svg xmlns="http://www.w3.org/2000/svg" viewBox="0 0 50 50" enable-background="new 0 0 50 50" width="100" height="100" style="fill: rgb(89, 146, 216);">
    <path style="text-indent:0;text-align:start;line-height:normal;text-transform:none;block-progression:tb;-inkscape-font-specification:Bitstream Vera Sans" d="M 25 3 C 12.86158 3 3 12.86158 3 25 C 3 37.13842 12.86158 47 25 47 C 37.13842 47 47 37.13842 47 25 C 47 12.86158 37.13842 3 25 3 z M 25 5 C 36.05754 5 45 13.94246 45 25 C 45 36.05754 36.05754 45 25 45 C 13.94246 45 5 36.05754 5 25 C 5 13.94246 13.94246 5 25 5 z M 34.0625 14.46875 L 23.125 31.46875 L 15.78125 24.84375 L 14.4375 26.34375 L 22.625 33.75 L 23.5 34.53125 L 24.125 33.53125 L 35.75 15.53125 L 34.0625 14.46875 z" color="#000" overflow="visible" enable-background="accumulate" font-family="Bitstream Vera Sans"/>
</svg>