<?xml version="1.0" encoding="utf-8"?>
<!-- Generator: Adobe Illustrator 16.0.0, SVG Export Plug-In . SVG Version: 6.00 Build 0)  -->
<!DOCTYPE svg PUBLIC "-//W3C//DTD SVG 1.1//EN" "http://www.w3.org/Graphics/SVG/1.1/DTD/svg11.dtd">
<svg version="1.1" id="Layer_1" xmlns="http://www.w3.org/2000/svg" xmlns:xlink="http://www.w3.org/1999/xlink" x="0px" y="0px"
	 width="50px" height="50px" viewBox="0 0 50 50" enable-background="new 0 0 50 50" xml:space="preserve">

<polygon points="26.6,24.249 40.725,18.691 40.95,19.049 29.07,28.725 "/>
<path fill="none" stroke="#002145" stroke-width="2" stroke-linecap="round" stroke-linejoin="round" stroke-miterlimit="10" d="
	M25,24c-2.211,0-4,1.792-4,4c0,2.208,1.789,4,4,4s4-1.792,4-4C29,25.791,27.211,24,25,24z"/>
<path fill="none" stroke="#002145" stroke-width="2" stroke-linecap="round" stroke-linejoin="round" stroke-miterlimit="10" d="
	M44.959,41.338C47.511,37.523,49,32.938,49,28C49,14.736,38.264,4,25,4S1,14.736,1,28c0,4.936,1.488,9.521,4.037,13.332"/>
<line fill="none" stroke="#002145" stroke-width="2" stroke-linecap="round" stroke-linejoin="round" stroke-miterlimit="10" x1="49" y1="28" x2="46" y2="28"/>
<line fill="none" stroke="#002145" stroke-width="2" stroke-linecap="round" stroke-linejoin="round" stroke-miterlimit="10" x1="1" y1="28" x2="4" y2="28"/>
<line fill="none" stroke="#002145" stroke-width="2" stroke-linecap="round" stroke-linejoin="round" stroke-miterlimit="10" x1="25" y1="4" x2="25" y2="7"/>
<line fill="none" stroke="#002145" stroke-width="2" stroke-linecap="round" stroke-linejoin="round" stroke-miterlimit="10" x1="13" y1="7.215" x2="14.5" y2="9.813"/>
<line fill="none" stroke="#002145" stroke-width="2" stroke-linecap="round" stroke-linejoin="round" stroke-miterlimit="10" x1="45.785" y1="40" x2="43.187" y2="38.5"/>
<line fill="none" stroke="#002145" stroke-width="2" stroke-linecap="round" stroke-linejoin="round" stroke-miterlimit="10" x1="4.215" y1="16" x2="6.813" y2="17.5"/>
<line fill="none" stroke="#002145" stroke-width="2" stroke-linecap="round" stroke-linejoin="round" stroke-miterlimit="10" x1="4.216" y1="40" x2="6.814" y2="38.5"/>
<line fill="none" stroke="#002145" stroke-width="2" stroke-linecap="round" stroke-linejoin="round" stroke-miterlimit="10" x1="45.785" y1="16" x2="43.188" y2="17.5"/>
<line fill="none" stroke="#002145" stroke-width="2" stroke-linecap="round" stroke-linejoin="round" stroke-miterlimit="10" x1="37" y1="7.214" x2="35.5" y2="9.813"/>
<rect x="14.999" y="41" fill="none" stroke="#002145" stroke-width="2" stroke-linecap="round" stroke-linejoin="round" stroke-miterlimit="10" width="20.002" height="3.998"/>
</svg>
