<svg xmlns="http://www.w3.org/2000/svg" viewBox="0 0 50 50" enable-background="new 0 0 50 50" width="100" height="100" style="fill: rgb(89, 146, 216);">
    <path style="text-indent:0;text-align:start;line-height:normal;text-transform:none;block-progression:tb;-inkscape-font-specification:Bitstream Vera Sans" d="M 14.40625 0.0625 C 7.9614196 2.7651708 2.7651708 7.9614196 0.0625 14.40625 L 1.9375 15.1875 C 4.4348292 9.2323304 9.2323304 4.4348292 15.1875 1.9375 L 14.40625 0.0625 z M 25 2 C 12.309296 2 2 12.309296 2 25 C 2 37.690704 12.309296 48 25 48 C 37.690704 48 48 37.690704 48 25 C 48 12.309296 37.690704 2 25 2 z M 25 4 C 36.609824 4 46 13.390176 46 25 C 46 36.609824 36.609824 46 25 46 C 13.390176 46 4 36.609824 4 25 C 4 13.390176 13.390176 4 25 4 z M 24 9 L 24 23.28125 C 23.403104 23.627293 23 24.260396 23 25 C 23 26.104569 23.895431 27 25 27 C 25.172589 27 25.340241 26.978604 25.5 26.9375 L 32.28125 33.71875 L 33.71875 32.28125 L 26.9375 25.5 C 26.978604 25.340241 27 25.172589 27 25 C 27 24.260396 26.596896 23.627293 26 23.28125 L 26 9 L 24 9 z M 48.09375 34.8125 C 45.492002 40.786883 40.764133 45.566654 34.8125 48.0625 L 35.59375 49.9375 C 42.042117 47.233346 47.107998 42.019367 49.90625 35.59375 L 48.09375 34.8125 z" color="#000" overflow="visible" enable-background="accumulate" font-family="Bitstream Vera Sans"/>
</svg>