<?xml version="1.0" encoding="utf-8"?><!-- Generator: Adobe Illustrator 15.0.0, SVG Export Plug-In . SVG Version: 6.00 Build 0)  --><!DOCTYPE svg PUBLIC "-//W3C//DTD SVG 1.1//EN" "http://www.w3.org/Graphics/SVG/1.1/DTD/svg11.dtd"><svg xmlns="http://www.w3.org/2000/svg" xmlns:xlink="http://www.w3.org/1999/xlink" version="1.1" id="Слой_1" x="0px" y="0px" width="48px" height="48px" viewBox="0 0 48 48" enable-background="new 0 0 48 48" xml:space="preserve" style="fill: rgb(46, 204, 113);">
<g>
	<path fill="#E89531" d="M25.25,35.329l-2.088-4.592l7.725-3.584c1.256-0.582,2.74-0.026,3.315,1.242   c0.576,1.268,0.026,2.767-1.229,3.349L25.25,35.329z"/>
	<path fill="#E89531" d="M29.809,35.789l-2.088-4.593l7.726-3.584c1.255-0.582,2.739-0.026,3.315,1.242s0.025,2.768-1.229,3.35   L29.809,35.789z"/>
	<path fill="#E89531" d="M26.045,35.063c0.271,0.108,2.688,1.004,3.599-1.313c0.062-0.157,0.116-0.385,0.151-0.645l2.006-0.871   c0.068,0.841-0.06,1.648-0.301,2.264c-1.326,3.368-4.632,3.068-6.133,2.463l-9.343-3.635l0.614-1.924L26.045,35.063z"/>
	<path fill="#E89531" d="M16.727,33.295c-0.508,0.222-1.095-0.017-1.313-0.528c-0.219-0.513,0.016-1.107,0.522-1.328   c0.508-0.222,1.096,0.016,1.314,0.526C17.468,32.479,17.234,33.071,16.727,33.295z"/>
</g>
<path fill="#78909C" d="M29.818,13.46c-2.484,0-4.5-2.014-4.5-4.5c0-2.484,2.016-4.5,4.5-4.5s4.5,2.016,4.5,4.5  C34.318,11.446,32.303,13.46,29.818,13.46"/>
<path fill="#CFD8DC" d="M30.569,11.206h-0.892V7.767l-1.064,0.328V7.376l1.859-0.666h0.097V11.206z"/>
<path fill="#FFB74D" d="M43.114,30.063c-0.546-1.28-2.017-1.871-3.284-1.32l-8.029,3.492c0.068,0.842-0.06,1.649-0.301,2.265  c-1.326,3.368-4.632,3.067-6.133,2.463l-9.343-3.635l0.003-0.009c-0.265-0.088-0.495-0.273-0.614-0.553  c-0.219-0.513,0.016-1.107,0.522-1.328c0.232-0.102,0.478-0.097,0.7-0.023l0.003-0.01l0.053,0.021  c0.006,0.002,0.012,0.005,0.018,0.007l9.335,3.631c0.271,0.109,2.688,1.004,3.599-1.312c0.062-0.157,0.116-0.385,0.151-0.644  l0.002-0.002c0.217-1.365-1.013-2.229-1.746-2.523l-11.927-4.727C12.313,24.214,3.318,28.21,3.318,28.21l3.369,8.352l3.72-1.617  l13.106,5.271c0.721,0.29,1.476,0.308,2.171,0.12c0.013-0.003,0.024-0.004,0.038-0.007c0.013-0.004,0.023-0.009,0.037-0.013  c0.146-0.033,0.291-0.076,0.434-0.139l15.613-6.795C43.075,32.83,43.66,31.346,43.114,30.063z"/>
<path fill="#B0BEC5" d="M23.318,10.415c-3.885,0-7.045,3.16-7.045,7.045s3.16,7.045,7.045,7.045s7.045-3.16,7.045-7.045  S27.203,10.415,23.318,10.415z"/>
<path fill="#546E7A" d="M24.318,21.46h-1.563v-6.121l-1.865,0.585v-1.276l3.261-1.188h0.167V21.46z"/>
</svg>