<svg xmlns="http://www.w3.org/2000/svg" width="100" height="100" viewBox="0 0 50 50" style="fill: rgb(89, 146, 216);">
    <path style="text-indent:0;text-align:start;line-height:normal;text-transform:none;block-progression:tb;-inkscape-font-specification:Bitstream Vera Sans" d="M 25 0 C 22.547958 0 20.478214 1.3571806 17.40625 2.9375 C 14.334286 4.5178194 10.214973 6.431217 3.78125 7.84375 L 3 8.03125 L 3 8.8125 C 3 24.132965 8.3705779 34.370392 13.75 40.71875 C 19.129422 47.067108 24.59375 49.59375 24.59375 49.59375 L 25.03125 49.8125 L 25.46875 49.59375 C 25.46875 49.59375 47 38.46933 47 8.8125 L 47 8.03125 L 46.21875 7.84375 C 39.785027 6.431217 35.665714 4.5178194 32.59375 2.9375 C 29.521786 1.3571806 27.452042 0 25 0 z M 25 2 C 26.645958 2 28.549714 3.1045694 31.6875 4.71875 C 34.666779 6.2513894 38.860274 8.130133 44.9375 9.5625 C 44.571977 36.681466 26.254413 46.853153 24.96875 47.53125 C 24.349309 47.230466 20.020796 45.067607 15.25 39.4375 C 10.223359 33.505466 5.246006 23.961475 5.0625 9.5625 C 11.139726 8.130133 15.333221 6.2513894 18.3125 4.71875 C 21.450286 3.1045694 23.354042 2 25 2 z M 32.6875 14.625 L 32.15625 15.46875 L 24.03125 28.09375 L 18.65625 23.25 L 17.9375 22.59375 L 16.59375 24.0625 L 17.34375 24.75 L 23.53125 30.375 L 24.40625 31.15625 L 25.0625 30.15625 L 33.84375 16.53125 L 34.375 15.6875 L 32.6875 14.625 z" color="#000" overflow="visible" enable-background="accumulate" font-family="Bitstream Vera Sans"/>
</svg>