<?xml version="1.0" encoding="utf-8"?>
<!-- Generator: Adobe Illustrator 15.0.0, SVG Export Plug-In . SVG Version: 6.00 Build 0)  -->
<!DOCTYPE svg PUBLIC "-//W3C//DTD SVG 1.1//EN" "http://www.w3.org/Graphics/SVG/1.1/DTD/svg11.dtd">
<svg xmlns="http://www.w3.org/2000/svg" xmlns:xlink="http://www.w3.org/1999/xlink" version="1.1" id="Layer_1" x="0px" y="0px" width="26px" height="26px" viewBox="0 0 26 26" enable-background="new 0 0 26 26" xml:space="preserve">
<path fill="#ffffff" d="M3,4C2.449,4,2,3.551,2,3V2c0-0.551,0.449-1,1-1h20c0.551,0,1,0.449,1,1v1c0,0.551-0.449,1-1,1H3z"/>

<path fill="#ffffff" d="M2.031,7l-1.733,4.97c0,0-0.017,1.024,1.015,1.024c0.865,0,0.867-1.024,0.867-1.024L3.656,7H2.031z"/>
<path fill="#ffffff" d="M6.094,7l-1.092,4.97c0,0,0.01,1.024,0.998,1.024s0.884-1.024,0.884-1.024L7.719,7H6.094z"/>
<path fill="#ffffff" d="M10.156,7l-0.449,4.97c0,0,0.012,1.024,0.965,1.024s0.917-1.024,0.917-1.024L11.781,7H10.156z"/>
<path fill="#ffffff" d="M14.219,7l0.192,4.97c0,0-0.035,1.024,0.948,1.024s0.934-1.024,0.934-1.024L15.844,7H14.219z"/>
<path fill="#ffffff" d="M18.282,7l0.835,4.97c0,0,0.07,1.024,0.992,1.024c0.859,0,0.889-1.024,0.889-1.024L19.906,7H18.282z"/>
<path fill="#ffffff" d="M22.344,7l1.478,4.97c0,0-0.056,1.024,0.976,1.024s0.906-1.024,0.906-1.024L23.969,7H22.344z"/>
<path fill="#ffffff" d="M2,8V6c0-0.551,0.449-1,1-1h20c0.551,0,1,0.449,1,1v2H2z"/>
<path fill="#ffffff" d="M23.8,12c0.001,0.021,0.007,0.042,0.007,0.064c0,0.781-0.634,1.416-1.416,1.416s-1.416-0.635-1.416-1.416  c0-0.022,0.006-0.043,0.007-0.064h-1.869c0.001,0.021,0.007,0.042,0.007,0.064c0,0.781-0.634,1.416-1.416,1.416  s-1.416-0.635-1.416-1.416c0-0.022,0.006-0.043,0.007-0.064h-1.885c0.001,0.021,0.007,0.042,0.007,0.064  c0,0.781-0.634,1.416-1.416,1.416s-1.416-0.635-1.416-1.416c0-0.022,0.006-0.043,0.007-0.064H9.706  c0.001,0.021,0.007,0.042,0.007,0.064c0,0.781-0.634,1.416-1.416,1.416s-1.416-0.635-1.416-1.416c0-0.022,0.006-0.043,0.007-0.064  H5.002c0.001,0.021,0.007,0.042,0.007,0.064c0,0.781-0.634,1.416-1.416,1.416s-1.416-0.635-1.416-1.416  c0-0.022,0.006-0.043,0.007-0.064H2v13c0,0.551,0.449,1,1,1h13V16h5v10h2c0.551,0,1-0.449,1-1V12H23.8z M13,23H5v-7h8V23z"/>
</svg>
