<?xml version="1.0" encoding="utf-8"?>
<!-- Generator: Adobe Illustrator 17.0.0, SVG Export Plug-In . SVG Version: 6.00 Build 0)  -->
<!DOCTYPE svg PUBLIC "-//W3C//DTD SVG 1.1//EN" "http://www.w3.org/Graphics/SVG/1.1/DTD/svg11.dtd">
<svg version="1.1" id="Layer_1" xmlns="http://www.w3.org/2000/svg" xmlns:xlink="http://www.w3.org/1999/xlink" x="0px" y="0px"
	 width="50px" height="50px" viewBox="0 0 50 50" enable-background="new 0 0 50 50" xml:space="preserve">
<path fill="none" stroke="#002145" stroke-width="2" stroke-linecap="round" stroke-miterlimit="10" d="M44.96,24.667
	c0-0.011,0.002-2.771,0.002-2.782c0-4.907-3.977-8.885-8.885-8.885c-0.617,0-21.537,0-22.154,0c-4.907,0-8.885,3.977-8.885,8.885
	c0,0.011,0.002,2.782,0.002,2.782"/>


<g>
	<path fill="none" stroke="#002145" stroke-width="2" stroke-linecap="round" stroke-miterlimit="10" d="M48.962,29.269
		c0-2.358-1.913-4.269-4.269-4.269c-1.832,0-3.382,1.159-3.988,2.78l-2.024,4.536C38.528,32.222,32.096,30,25.115,30
		c-6.981,0-13.656,2.231-13.811,2.327l-1.918-4.255C8.867,26.302,7.246,25,5.308,25c-2.358,0-4.269,1.911-4.269,4.269
		c0,1.962,1.332,3.599,3.137,4.098l2.636,6.791C7.644,43.043,11.769,43,11.769,43h26.462c0,0,4.125,0.043,4.958-2.841l2.636-6.791
		C47.627,32.868,48.962,31.231,48.962,29.269z"/>
</g>
<g>
	<path fill="none" stroke="#002145" stroke-width="2" stroke-linecap="round" stroke-miterlimit="10" d="M38.038,43.028l2.463,4.951
		c0.325,0.647,0.975,1.02,1.653,1.02c0.278,0,0.559-0.063,0.824-0.195c0.912-0.456,1.282-1.565,0.826-2.477l-2.096-4.216"/>
</g>
<g>
	<path fill="none" stroke="#002145" stroke-width="2" stroke-linecap="round" stroke-miterlimit="10" d="M11.962,43.028L9.498,47.98
		C9.174,48.627,8.523,49,7.845,49c-0.278,0-0.559-0.063-0.824-0.195c-0.912-0.456-1.282-1.565-0.826-2.477l2.096-4.216"/>
</g>
</svg>
