<?xml version="1.0" encoding="utf-8"?>
<!-- Generator: Adobe Illustrator 17.0.0, SVG Export Plug-In . SVG Version: 6.00 Build 0)  -->
<!DOCTYPE svg PUBLIC "-//W3C//DTD SVG 1.1//EN" "http://www.w3.org/Graphics/SVG/1.1/DTD/svg11.dtd">
<svg version="1.1" id="Layer_1" xmlns="http://www.w3.org/2000/svg" xmlns:xlink="http://www.w3.org/1999/xlink" x="0px" y="0px"
	 width="50px" height="50px" viewBox="0 0 50 50" enable-background="new 0 0 50 50" xml:space="preserve">

<path fill="none" stroke="#002145" stroke-width="2" stroke-linejoin="round" stroke-miterlimit="10" d="M10,5H2
	C1.448,5,1,5.448,1,6v42c0,0.552,0.448,1,1,1h46c0.552,0,1-0.448,1-1V6c0-0.552-0.448-1-1-1h-8"/>
<line fill="none" stroke="#002145" stroke-width="2" stroke-linejoin="round" stroke-miterlimit="10" x1="36" y1="5" x2="14" y2="5"/>
<path fill="none" stroke="#002145" stroke-width="2" stroke-linejoin="round" stroke-miterlimit="10" d="M37,1c-0.552,0-1,0.448-1,1
	v6c0,0.552,0.448,1,1,1h2c0.552,0,1-0.448,1-1V2c0-0.552-0.448-1-1-1H37z"/>
<path fill="none" stroke="#002145" stroke-width="2" stroke-linejoin="round" stroke-miterlimit="10" d="M11,1c-0.552,0-1,0.448-1,1
	v6c0,0.552,0.448,1,1,1h2c0.552,0,1-0.448,1-1V2c0-0.552-0.448-1-1-1H11z"/>
<line fill="none" stroke="#002145" stroke-width="2" stroke-linejoin="round" stroke-miterlimit="10" x1="1" y1="15" x2="49" y2="15"/>
<polyline fill="none" stroke="#002145" stroke-width="2" stroke-linecap="square" stroke-miterlimit="10" points="18,32 
	24.217,37.624 33,24 "/>
</svg>
