<svg xmlns="http://www.w3.org/2000/svg" width="100" height="100" viewBox="0 0 50 50" style="fill: rgb(89, 146, 216);">
    <path style="text-indent:0;text-align:start;line-height:normal;text-transform:none;block-progression:tb;-inkscape-font-specification:Bitstream Vera Sans" d="M 34.625 3.03125 C 33.842594 3.0446887 32.981448 3.216437 31.90625 3.5 C 28.823008 4.313464 11.09375 9.21875 11.09375 9.21875 A 1.0001 1.0001 0 0 0 11 9.25 C 8.1925991 10.308099 6.4214397 11.305585 5.34375 12.75 C 4.2719363 14.18654 4.0336784 15.914727 4.03125 17.96875 C 4.0312367 17.98001 4.03125 17.98872 4.03125 18 L 4.03125 18.625 C 4.0211739 18.750316 4 18.876027 4 19 L 4 40.375 C 4 43.465131 6.5348693 46 9.625 46 L 40.375 46 C 43.464343 46 46 43.465392 46 40.375 L 46 18.84375 C 46 15.655211 43.150282 13 40 13 L 10 13 C 8.8780705 13 7.8713179 13.321964 7.03125 13.84375 C 7.7586506 12.950773 9.1292182 12.10406 11.625 11.15625 C 11.652 11.146 11.66023 11.13528 11.6875 11.125 C 11.800037 11.0938 29.426998 6.2235281 32.40625 5.4375 C 33.397552 5.176063 34.141437 5.0400925 34.65625 5.03125 C 35.171063 5.02241 35.414021 5.099899 35.53125 5.1875 C 35.648479 5.275101 35.745324 5.4399422 35.84375 5.84375 C 35.942176 6.2475578 36 6.8594752 36 7.65625 L 36 11 L 38 11 L 38 7.65625 C 38 6.7875248 37.946792 6.054161 37.78125 5.375 C 37.615708 4.695839 37.297896 4.0265241 36.71875 3.59375 C 36.139604 3.1609759 35.407406 3.0178113 34.625 3.03125 z M 10 15 L 40 15 C 41.947718 15 44 16.938289 44 18.84375 L 44 40.375 C 44 42.384608 42.383657 44 40.375 44 L 9.625 44 C 7.6151307 44 6 42.384869 6 40.375 L 6 20.46875 L 6.03125 18.8125 C 6.0890781 18.131714 6.438128 17.163756 7.09375 16.40625 C 7.8093707 15.579421 8.7870975 15 10 15 z M 38.5 27 C 37.119 27 36 28.119 36 29.5 C 36 30.881 37.119 32 38.5 32 C 39.877 32 41 30.881 41 29.5 C 41 28.119 39.877 27 38.5 27 z" color="#000" overflow="visible" enable-background="accumulate" font-family="Bitstream Vera Sans"/>
</svg>