<?xml version="1.0" encoding="UTF-8" standalone="no"?>
<svg width="103px" height="95px" viewBox="0 0 103 95" version="1.1" xmlns="http://www.w3.org/2000/svg" xmlns:xlink="http://www.w3.org/1999/xlink">
    <!-- Generator: Sketch 39.1 (31720) - http://www.bohemiancoding.com/sketch -->
    <title>currencies</title>
    <desc>Created with Sketch.</desc>
    <defs></defs>
    <g id="Page-1" stroke="none" stroke-width="1" fill="none" fill-rule="evenodd">
        <g id="currencies">
            <polygon id="Fill-1" fill="#FFFFFF" points="2 92.4121 100.5 92.4121 100.5 2.0001 2 2.0001"></polygon>
            <path d="M0,94.4121 L102.5,94.4121 L102.5,0.0001 L0,0.0001 L0,94.4121 Z M4,90.4131 L98.5,90.4131 L98.5,4.0001 L4,4.0001 L4,90.4131 Z" id="Fill-2" fill="#282D33"></path>
            <polygon id="Fill-3" fill="#FFFFFF" points="2 13.5001 100.5 13.5001 100.5 2.0001 2 2.0001"></polygon>
            <path d="M0,15.5001 L102.5,15.5001 L102.5,0.0001 L0,0.0001 L0,15.5001 Z M4,11.5001 L98.5,11.5001 L98.5,4.0001 L4,4.0001 L4,11.5001 Z" id="Fill-4" fill="#282D33"></path>
            <path d="M6.4998,7.6683 L10.2378,7.6683 L6.4998,7.6683 Z" id="Fill-5" fill="#FFFFFF"></path>
            <polygon id="Fill-6" fill="#282D33" points="6.5 9.6681 10.237 9.6681 10.237 5.6681 6.5 5.6681"></polygon>
            <path d="M12.9708,7.6683 L16.7108,7.6683 L12.9708,7.6683 Z" id="Fill-7" fill="#FFFFFF"></path>
            <polygon id="Fill-8" fill="#282D33" points="12.971 9.6681 16.711 9.6681 16.711 5.6681 12.971 5.6681"></polygon>
            <path d="M19.4427,7.6683 L23.1827,7.6683 L19.4427,7.6683 Z" id="Fill-9" fill="#FFFFFF"></path>
            <polygon id="Fill-10" fill="#282D33" points="19.443 9.6681 23.183 9.6681 23.183 5.6681 19.443 5.6681"></polygon>
            <polygon id="Fill-11" fill="#E4C695" points="10.575 84.4001 20.025 84.4001 20.025 71.3131 10.575 71.3131"></polygon>
            <path d="M12.575,82.4001 L18.025,82.4001 L18.025,73.3131 L12.575,73.3131 L12.575,82.4001 Z M8.575,86.4001 L22.025,86.4001 L22.025,69.3131 L8.575,69.3131 L8.575,86.4001 Z" id="Fill-12" fill="#E4C695"></path>
            <polygon id="Fill-13" fill="#E4C695" points="10.575 84.4011 20.025 84.4011 20.025 76.8461 10.575 76.8461"></polygon>
            <path d="M12.575,82.4001 L18.025,82.4001 L18.025,78.8451 L12.575,78.8451 L12.575,82.4001 Z M8.575,86.4001 L22.025,86.4001 L22.025,74.8451 L8.575,74.8451 L8.575,86.4001 Z" id="Fill-14" fill="#282D33"></path>
            <polygon id="Fill-15" fill="#E4C695" points="28.551 84.4001 38.001 84.4001 38.001 58.8131 28.551 58.8131"></polygon>
            <path d="M30.551,82.4001 L36.001,82.4001 L36.001,60.8131 L30.551,60.8131 L30.551,82.4001 Z M26.551,86.4001 L40.001,86.4001 L40.001,56.8131 L26.551,56.8131 L26.551,86.4001 Z" id="Fill-16" fill="#E4C695"></path>
            <polygon id="Fill-17" fill="#FFFFFF" points="28.551 84.4001 38.001 84.4001 38.001 70.6461 28.551 70.6461"></polygon>
            <path d="M30.551,82.4001 L36.001,82.4001 L36.001,72.6461 L30.551,72.6461 L30.551,82.4001 Z M26.551,86.4001 L40.001,86.4001 L40.001,68.6461 L26.551,68.6461 L26.551,86.4001 Z" id="Fill-18" fill="#282D33"></path>
            <polygon id="Fill-19" fill="#E4C695" points="46.526 84.4001 55.975 84.4001 55.975 45.8131 46.526 45.8131"></polygon>
            <path d="M48.525,82.4001 L53.974,82.4001 L53.974,47.8131 L48.525,47.8131 L48.525,82.4001 Z M44.526,86.4001 L57.975,86.4001 L57.975,43.8131 L44.526,43.8131 L44.526,86.4001 Z" id="Fill-20" fill="#E4C695"></path>
            <polygon id="Fill-21" fill="#FFFFFF" points="46.526 84.4001 55.975 84.4001 55.975 55.1461 46.526 55.1461"></polygon>
            <path d="M48.525,82.4001 L53.974,82.4001 L53.974,57.1461 L48.525,57.1461 L48.525,82.4001 Z M44.526,86.4001 L57.975,86.4001 L57.975,53.1461 L44.526,53.1461 L44.526,86.4001 Z" id="Fill-22" fill="#282D33"></path>
            <polygon id="Fill-23" fill="#E4C695" points="64.501 84.4001 73.951 84.4001 73.951 41.8131 64.501 41.8131"></polygon>
            <path d="M66.501,82.4001 L71.951,82.4001 L71.951,43.8131 L66.501,43.8131 L66.501,82.4001 Z M62.501,86.4001 L75.951,86.4001 L75.951,39.8131 L62.501,39.8131 L62.501,86.4001 Z" id="Fill-24" fill="#E4C695"></path>
            <polygon id="Fill-25" fill="#FFFFFF" points="64.501 84.4001 73.951 84.4001 73.951 60.6461 64.501 60.6461"></polygon>
            <path d="M66.501,82.4001 L71.951,82.4001 L71.951,62.6461 L66.501,62.6461 L66.501,82.4001 Z M62.501,86.4001 L75.951,86.4001 L75.951,58.6461 L62.501,58.6461 L62.501,86.4001 Z" id="Fill-26" fill="#282D33"></path>
            <polygon id="Fill-27" fill="#E4C695" points="82.476 84.4001 91.926 84.4001 91.926 27.9801 82.476 27.9801"></polygon>
            <path d="M84.476,82.4001 L89.926,82.4001 L89.926,29.9801 L84.476,29.9801 L84.476,82.4001 Z M80.476,86.4001 L93.926,86.4001 L93.926,25.9801 L80.476,25.9801 L80.476,86.4001 Z" id="Fill-28" fill="#E4C695"></path>
            <polygon id="Fill-29" fill="#FFFFFF" points="82.476 84.4001 91.926 84.4001 91.926 35.8131 82.476 35.8131"></polygon>
            <path d="M84.476,82.4001 L89.926,82.4001 L89.926,37.8131 L84.476,37.8131 L84.476,82.4001 Z M80.476,86.4001 L93.926,86.4001 L93.926,33.8131 L80.476,33.8131 L80.476,86.4001 Z" id="Fill-30" fill="#282D33"></path>
        </g>
    </g>
</svg>