<?xml version="1.0" encoding="UTF-8" standalone="no"?>
<svg width="102px" height="102px" viewBox="0 0 102 102" version="1.1" xmlns="http://www.w3.org/2000/svg" xmlns:xlink="http://www.w3.org/1999/xlink">
    <!-- Generator: Sketch 39.1 (31720) - http://www.bohemiancoding.com/sketch -->
    <title>lowfees</title>
    <desc>Created with Sketch.</desc>
    <defs>
        <polygon id="path-1" points="2.84217094e-14 102 101.438 102 101.438 0.578 2.84217094e-14 0.578 2.84217094e-14 101.9996 -0.0001 0.5776 101.4379 0.5776 101.4379 101.9996 2.51812053e-14 101.9996"></polygon>
    </defs>
    <g id="Page-1" stroke="none" stroke-width="1" fill="none" fill-rule="evenodd">
        <g id="lowfees" transform="translate(0.000000, -1.000000)">
            <g id="Group-3" transform="translate(0.000000, 0.422000)">
                <mask id="mask-2" fill="white">
                    <use xlink:href="#path-1"></use>
                </mask>
                <g id="Clip-2"></g>
                <path d="M54.4649,4.7236 C53.2359,4.6266 51.9859,4.5776 50.7459,4.5776 L50.6019,4.5786 L50.6019,0.5786 L50.7269,0.5776 L50.7299,0.5776 C52.0919,0.5776 53.4469,0.6316 54.7789,0.7366 L54.4649,4.7236 Z M42.9199,5.2286 L42.2579,1.2846 C43.6279,1.0546 45.0269,0.8776 46.4129,0.7616 L46.7479,4.7466 C45.4719,4.8546 44.1839,5.0176 42.9199,5.2286 L42.9199,5.2286 Z M62.0769,5.9596 C60.8309,5.6496 59.5589,5.3886 58.2969,5.1836 L58.9379,1.2356 C60.3089,1.4576 61.6899,1.7416 63.0419,2.0776 L62.0769,5.9596 Z M35.4509,7.1326 L34.1449,3.3526 C35.4559,2.8996 36.8059,2.4946 38.1579,2.1496 L39.1469,6.0256 C37.9029,6.3436 36.6579,6.7166 35.4509,7.1326 L35.4509,7.1326 Z M69.3789,8.4386 C68.2029,7.9276 66.9919,7.4586 65.7779,7.0466 L67.0649,3.2596 C68.3829,3.7076 69.6979,4.2166 70.9749,4.7706 L69.3789,8.4386 Z M28.4009,10.2446 L26.4889,6.7326 C27.7089,6.0686 28.9729,5.4466 30.2449,4.8846 L31.8619,8.5416 C30.6899,9.0606 29.5259,9.6346 28.4009,10.2446 L28.4009,10.2446 Z M76.1709,12.0936 C75.0989,11.3946 73.9819,10.7326 72.8509,10.1246 L74.7469,6.6016 C75.9749,7.2636 77.1879,7.9816 78.3529,8.7396 L76.1709,12.0936 Z M21.9559,14.4776 L19.4929,11.3266 C20.5849,10.4726 21.7289,9.6516 22.8939,8.8856 L25.0929,12.2266 C24.0179,12.9336 22.9629,13.6916 21.9559,14.4776 L21.9559,14.4776 Z M82.2689,16.8156 C81.3299,15.9546 80.3369,15.1176 79.3189,14.3286 L81.7679,11.1676 C82.8739,12.0236 83.9519,12.9316 84.9719,13.8676 L82.2689,16.8156 Z M16.2889,19.7126 L13.3439,17.0066 C14.2829,15.9846 15.2769,14.9866 16.3009,14.0416 L19.0159,16.9776 C18.0719,17.8506 17.1549,18.7706 16.2889,19.7126 L16.2889,19.7126 Z M87.5139,22.4766 C86.7219,21.4676 85.8789,20.4786 85.0079,19.5386 L87.9439,16.8206 C88.8879,17.8406 89.8019,18.9126 90.6599,20.0086 L87.5139,22.4766 Z M11.5569,25.8036 L8.2069,23.6176 C8.9639,22.4576 9.7809,21.3106 10.6389,20.2056 L13.7989,22.6586 C13.0079,23.6776 12.2539,24.7356 11.5569,25.8036 L11.5569,25.8036 Z M91.7519,28.9146 C91.1399,27.7916 90.4719,26.6796 89.7669,25.6086 L93.1069,23.4086 C93.8729,24.5726 94.5989,25.7806 95.2639,26.9996 L91.7519,28.9146 Z M7.8889,32.5916 L4.2249,30.9876 C4.7829,29.7076 5.4029,28.4406 6.0629,27.2196 L9.5819,29.1216 C8.9749,30.2456 8.4039,31.4126 7.8889,32.5916 L7.8889,32.5916 Z M94.8709,35.9586 C94.4549,34.7546 93.9809,33.5486 93.4599,32.3736 L97.1169,30.7536 C97.6839,32.0316 98.1989,33.3426 98.6529,34.6516 L94.8709,35.9586 Z M5.3979,39.8886 L1.5189,38.9156 C1.8579,37.5646 2.2569,36.2116 2.7059,34.8956 L6.4909,36.1886 C6.0779,37.3996 5.7099,38.6446 5.3979,39.8886 L5.3979,39.8886 Z M96.7829,43.4296 C96.5669,42.1596 96.2989,40.8896 95.9829,39.6546 L99.8589,38.6636 C100.2009,40.0056 100.4929,41.3846 100.7269,42.7616 L96.7829,43.4296 Z M4.1509,47.4946 L0.1629,47.1776 C0.2739,45.7916 0.4439,44.3926 0.6699,43.0176 L4.6169,43.6676 C4.4089,44.9316 4.2529,46.2196 4.1509,47.4946 L4.1509,47.4946 Z M97.4379,51.1156 C97.4329,49.8286 97.3759,48.5306 97.2679,47.2566 L101.2539,46.9186 C101.3699,48.2996 101.4329,49.7066 101.4379,51.1006 L97.4379,51.1156 Z M0.1779,55.5436 C0.0629,54.1626 0.0029,52.7566 -0.0001,51.3616 L3.9999,51.3526 C4.0029,52.6396 4.0579,53.9376 4.1639,55.2116 L0.1779,55.5436 Z M100.7829,59.4426 L96.8339,58.8036 C97.0379,57.5416 97.1939,56.2536 97.2929,54.9726 L101.2809,55.2846 C101.1719,56.6746 101.0049,58.0736 100.7829,59.4426 L100.7829,59.4426 Z M1.5599,63.8006 C1.2189,62.4576 0.9289,61.0786 0.6969,59.7006 L4.6429,59.0396 C4.8559,60.3086 5.1229,61.5796 5.4369,62.8156 L1.5599,63.8006 Z M98.7669,67.5686 L94.9779,66.2876 C95.3889,65.0716 95.7539,63.8256 96.0619,62.5836 L99.9439,63.5486 C99.6099,64.8956 99.2129,66.2486 98.7669,67.5686 L98.7669,67.5686 Z M4.2879,71.7146 C3.7269,70.4406 3.2119,69.1286 2.7599,67.8146 L6.5409,66.5126 C6.9579,67.7206 7.4309,68.9276 7.9469,70.1006 L4.2879,71.7146 Z M95.4299,75.2566 L91.9059,73.3636 C92.5129,72.2336 93.0789,71.0646 93.5889,69.8896 L97.2589,71.4826 C96.7039,72.7586 96.0889,74.0286 95.4299,75.2566 L95.4299,75.2566 Z M8.2869,79.0666 C7.5239,77.9046 6.8009,76.6966 6.1359,75.4726 L9.6489,73.5616 C10.2629,74.6886 10.9289,75.8026 11.6309,76.8716 L8.2869,79.0666 Z M90.8749,82.2816 L87.7089,79.8366 C88.4919,78.8226 89.2429,77.7626 89.9419,76.6856 L93.2969,78.8626 C92.5399,80.0306 91.7249,81.1816 90.8749,82.2816 L90.8749,82.2816 Z M13.4389,85.6626 C12.4949,84.6406 11.5829,83.5676 10.7269,82.4716 L13.8789,80.0086 C14.6679,81.0186 15.5089,82.0086 16.3779,82.9506 L13.4389,85.6626 Z M85.2309,88.4646 L82.5059,85.5346 C83.4459,84.6616 84.3609,83.7386 85.2249,82.7926 L88.1779,85.4896 C87.2409,86.5156 86.2479,87.5176 85.2309,88.4646 L85.2309,88.4646 Z M19.6039,91.3286 C18.5029,90.4726 17.4269,89.5616 16.4039,88.6216 L19.1129,85.6786 C20.0539,86.5446 21.0449,87.3826 22.0589,88.1716 L19.6039,91.3286 Z M78.6499,93.6376 L76.4429,90.3016 C77.5149,89.5916 78.5689,88.8316 79.5729,88.0416 L82.0449,91.1866 C80.9549,92.0426 79.8129,92.8676 78.6499,93.6376 L78.6499,93.6376 Z M26.6119,95.9086 C25.3899,95.2466 24.1779,94.5256 23.0119,93.7626 L25.2009,90.4156 C26.2749,91.1166 27.3909,91.7816 28.5169,92.3916 L26.6119,95.9086 Z M71.3089,97.6576 L69.6839,94.0026 C70.8529,93.4826 72.0159,92.9076 73.1399,92.2916 L75.0619,95.7996 C73.8409,96.4686 72.5779,97.0936 71.3089,97.6576 L71.3089,97.6576 Z M34.2859,99.2726 C32.9669,98.8206 31.6529,98.3086 30.3789,97.7496 L31.9859,94.0866 C33.1579,94.6006 34.3679,95.0726 35.5829,95.4886 L34.2859,99.2726 Z M63.3989,100.4086 L62.4049,96.5336 C63.6469,96.2156 64.8899,95.8406 66.0989,95.4196 L67.4129,99.1976 C66.0999,99.6546 64.7479,100.0616 63.3989,100.4086 L63.3989,100.4086 Z M42.4059,101.3186 C41.0309,101.0916 39.6509,100.8036 38.3039,100.4646 L39.2789,96.5856 C40.5219,96.8976 41.7929,97.1626 43.0589,97.3716 L42.4059,101.3186 Z M55.1469,101.8106 L54.8059,97.8256 C56.0849,97.7166 57.3719,97.5516 58.6329,97.3376 L59.3029,101.2806 C57.9339,101.5136 56.5359,101.6916 55.1469,101.8106 L55.1469,101.8106 Z M50.9699,101.9996 L50.7329,101.9996 C49.3519,101.9996 47.9439,101.9426 46.5629,101.8296 L46.8889,97.8436 C48.1619,97.9476 49.4599,97.9996 50.7459,97.9996 L50.9429,97.9996 L50.9699,101.9996 Z" id="Fill-1" fill="#282D33"></path>
            </g>
            <path d="M50.7305,72.4259 C39.2775,72.4259 29.9995,63.1479 29.9995,51.7049 C29.9995,40.2659 39.2775,30.9949 50.7305,30.9949 C62.1775,30.9949 71.4375,40.2659 71.4375,51.7049 C71.4375,63.1479 62.1775,72.4259 50.7305,72.4259" id="Fill-4" fill="#E4C695"></path>
            <path d="M34.2734,27.0509 C31.0344,27.0509 28.3984,29.6879 28.3984,32.9289 L28.3984,43.6739 C28.3984,46.9149 31.0344,49.5509 34.2734,49.5509 C37.5164,49.5509 40.1544,46.9149 40.1544,43.6739 L40.1544,32.9289 C40.1544,29.6879 37.5164,27.0509 34.2734,27.0509 M34.2734,53.5509 C28.8284,53.5509 24.3984,49.1209 24.3984,43.6739 L24.3984,32.9289 C24.3984,27.4819 28.8284,23.0509 34.2734,23.0509 C39.7214,23.0509 44.1544,27.4819 44.1544,32.9289 L44.1544,43.6739 C44.1544,49.1209 39.7214,53.5509 34.2734,53.5509" id="Fill-6" fill="#282D33"></path>
            <path d="M67.1572,53.8707 C63.9162,53.8707 61.2812,56.5067 61.2812,59.7477 L61.2812,70.4927 C61.2812,73.7337 63.9162,76.3707 67.1572,76.3707 C70.4002,76.3707 73.0392,73.7337 73.0392,70.4927 L73.0392,59.7477 C73.0392,56.5067 70.4002,53.8707 67.1572,53.8707 M67.1572,80.3707 C61.7122,80.3707 57.2812,75.9387 57.2812,70.4927 L57.2812,59.7477 C57.2812,54.3007 61.7122,49.8707 67.1572,49.8707 C72.6062,49.8707 77.0392,54.3007 77.0392,59.7477 L77.0392,70.4927 C77.0392,75.9387 72.6062,80.3707 67.1572,80.3707" id="Fill-8" fill="#282D33"></path>
            <path d="M77.4824,24.9513 L23.7324,78.6983" id="Fill-10" fill="#FFFFFF"></path>
            <polygon id="Fill-12" fill="#282D33" points="25.1465 80.1124 22.3185 77.2844 76.0685 23.5374 78.8965 26.3654"></polygon>
        </g>
    </g>
</svg>