<?xml version="1.0" encoding="UTF-8" standalone="no"?>
<svg width="85px" height="99px" viewBox="0 0 85 99" version="1.1" xmlns="http://www.w3.org/2000/svg" xmlns:xlink="http://www.w3.org/1999/xlink">
    <!-- Generator: Sketch 39.1 (31720) - http://www.bohemiancoding.com/sketch -->
    <title>nochargebacks</title>
    <desc>Created with Sketch.</desc>
    <defs>
        <polygon id="path-1" points="42.32905 0.917 0 0.917 0 99 84.658 99 84.658 0.917 42.32905 0.917 0.0001 0.917 0.0001 85.573 84.6581 85.573 84.6581 0.917"></polygon>
    </defs>
    <g id="Page-1" stroke="none" stroke-width="1" fill="none" fill-rule="evenodd">
        <g id="nochargebacks" transform="translate(0.000000, -1.000000)">
            <polygon id="Fill-1" fill="#E4C695" points="23.8572 53.246 23.8572 99.083 42.3302 89.989 60.7982 99.083 60.7982 53.246 42.3302 42.581"></polygon>
            <g id="Group-15" transform="translate(0.000000, 0.083000)">
                <path d="M37.9851,81.0073 C37.5541,80.5573 36.8311,79.8053 36.5241,79.7053 C36.2151,79.7133 35.3071,80.1993 34.7071,80.5203 C33.5451,81.1423 32.3431,81.7853 31.0101,81.7853 C30.6121,81.7853 30.2261,81.7253 29.8631,81.6073 C28.0921,81.0333 27.2331,79.2613 26.5451,77.8393 C26.2731,77.2763 25.8211,76.3413 25.5531,76.1343 C25.5261,76.1363 25.4381,76.1213 25.2751,76.1213 C24.8241,76.1213 24.1951,76.2333 23.5881,76.3413 C22.8101,76.4793 22.0081,76.6223 21.2061,76.6223 C20.1621,76.6223 19.3161,76.3773 18.6231,75.8723 C17.1231,74.7793 16.8671,72.9203 16.6401,71.2803 C16.5541,70.6493 16.4091,69.5933 16.2111,69.3293 C15.9811,69.1663 14.9251,69.0213 14.2941,68.9343 C12.6531,68.7093 10.7941,68.4533 9.7021,66.9543 C8.6131,65.4583 8.9411,63.6133 9.2301,61.9873 C9.3441,61.3563 9.5311,60.3003 9.4221,59.9873 C9.2551,59.7653 8.3021,59.3033 7.7321,59.0283 C6.3091,58.3413 4.5401,57.4843 3.9651,55.7103 C3.3971,53.9623 4.2771,52.3173 5.0551,50.8663 C5.3601,50.2943 5.8731,49.3373 5.8611,49.0023 C5.7701,48.7443 5.0171,48.0213 4.5661,47.5903 C3.4241,46.4913 2.0001,45.1243 2.0001,43.2463 C2.0001,41.3703 3.4241,40.0023 4.5661,38.9033 C5.0171,38.4703 5.7701,37.7483 5.8711,37.4403 C5.8731,37.1553 5.3601,36.1993 5.0541,35.6273 C4.2761,34.1753 3.3951,32.5293 3.9671,30.7793 C4.5401,29.0083 6.3081,28.1523 7.7301,27.4643 C8.2991,27.1883 9.2501,26.7273 9.4401,26.4613 C9.5281,26.1903 9.3421,25.1343 9.2281,24.5033 C8.9391,22.8773 8.6111,21.0333 9.6991,19.5393 C10.7941,18.0403 12.6501,17.7843 14.2911,17.5583 C14.9221,17.4713 15.9781,17.3263 16.2421,17.1283 C16.4071,16.8983 16.5521,15.8413 16.6391,15.2103 C16.8651,13.5703 17.1201,11.7113 18.6191,10.6193 C19.3161,10.1123 20.1611,9.8673 21.2051,9.8673 C22.0061,9.8673 22.8091,10.0103 23.5851,10.1483 C24.1911,10.2563 24.8201,10.3673 25.2711,10.3673 C25.4991,10.3673 25.5821,10.3393 25.5851,10.3383 C25.8091,10.1713 26.2681,9.2193 26.5441,8.6513 C27.2321,7.2293 28.0891,5.4593 29.8631,4.8823 C30.2261,4.7643 30.6121,4.7053 31.0101,4.7053 C32.3431,4.7053 33.5451,5.3483 34.7081,5.9713 C35.3091,6.2933 36.2171,6.7783 36.5701,6.7783 C36.8291,6.6873 37.5531,5.9353 37.9841,5.4853 C39.0841,4.3413 40.4521,2.9173 42.3301,2.9173 C44.2051,2.9173 45.5721,4.3393 46.6711,5.4823 C47.1041,5.9333 47.8291,6.6873 48.1371,6.7873 C48.4411,6.7783 49.3481,6.2933 49.9471,5.9723 C51.1111,5.3493 52.3141,4.7053 53.6481,4.7053 C54.0461,4.7053 54.4321,4.7643 54.7941,4.8823 C56.5661,5.4593 57.4241,7.2293 58.1121,8.6513 C58.3831,9.2123 58.8361,10.1483 59.1031,10.3533 C58.3432617,10.5932695 60.4671,10.2573 61.0741,10.1493 C61.8501,10.0113 62.6501,9.8683 63.4511,9.8683 C64.4961,9.8683 65.3421,10.1153 66.0371,10.6223 C67.5351,11.7143 67.7911,13.5713 68.0171,15.2113 C68.1041,15.8413 68.2481,16.8983 68.4471,17.1613 C68.6781,17.3263 69.7341,17.4713 70.3651,17.5583 C72.0061,17.7843 73.8631,18.0403 74.9551,19.5383 C76.0441,21.0333 75.7171,22.8773 75.4281,24.5053 C75.3141,25.1353 75.1281,26.1923 75.2371,26.5053 C75.4051,26.7283 76.3551,27.1883 76.9241,27.4633 C78.3451,28.1513 80.1141,29.0073 80.6911,30.7803 C81.2611,32.5293 80.3801,34.1743 79.6031,35.6263 C79.2971,36.1973 78.7851,37.1543 78.7961,37.4893 C78.8881,37.7483 79.6411,38.4703 80.0921,38.9033 C81.2341,40.0023 82.6581,41.3703 82.6581,43.2463 C82.6581,45.1243 81.2341,46.4913 80.0921,47.5903 C79.6411,48.0213 78.8881,48.7443 78.7881,49.0523 C78.7851,49.3393 79.2971,50.2963 79.6031,50.8673 C80.3791,52.3183 81.2591,53.9623 80.6911,55.7103 C80.1141,57.4853 78.3461,58.3413 76.9251,59.0283 C76.3551,59.3033 75.4041,59.7633 75.2151,60.0293 C75.1251,60.3023 75.3121,61.3593 75.4251,61.9913 C75.7141,63.6173 76.0401,65.4603 74.9531,66.9543 C73.8611,68.4533 72.0031,68.7093 70.3621,68.9353 C69.7301,69.0223 68.6741,69.1683 68.4101,69.3663 C68.2461,69.5973 68.1011,70.6513 68.0161,71.2803 C67.7901,72.9213 67.5331,74.7813 66.0331,75.8723 C65.3401,76.3773 64.4951,76.6223 63.4521,76.6223 C62.6501,76.6223 61.8481,76.4803 61.0731,76.3413 C60.4671,76.2343 59.8381,76.1223 59.3861,76.1223 C59.1581,76.1223 59.0761,76.1503 59.0721,76.1513 C58.8461,76.3203 58.3861,77.2723 58.1101,77.8413 C57.4221,79.2623 56.5641,81.0333 54.7881,81.6083 C54.4291,81.7253 54.0441,81.7853 53.6451,81.7853 C52.3141,81.7853 51.1121,81.1423 49.9501,80.5203 C49.3501,80.1993 48.4411,79.7133 48.0891,79.7133 C47.8251,79.8053 47.1011,80.5583 46.6701,81.0073 C45.5721,82.1513 44.2051,83.5733 42.3301,83.5733 C40.4521,83.5733 39.0851,82.1503 37.9851,81.0073 Z" id="Fill-2" stroke="#282D33" stroke-width="3" fill="#E4C695"></path>
                <g id="Group-6">
                    <mask id="mask-2" fill="white">
                        <use xlink:href="#path-1"></use>
                    </mask>
                    <g id="Clip-5"></g>
                    <path d="M42.3301,0.917 C39.6001,0.917 37.7601,2.832 36.5431,4.1 C36.4321,4.214 36.3021,4.35 36.1711,4.483 C35.9901,4.389 35.8071,4.291 35.6521,4.208 C34.4001,3.538 32.8451,2.705 31.0101,2.705 C30.4021,2.705 29.8091,2.798 29.2451,2.981 C26.6601,3.82 25.5071,6.203 24.7441,7.78 C24.6721,7.928 24.5871,8.104 24.5001,8.276 C24.3101,8.246 24.1131,8.211 23.9341,8.179 C23.1131,8.033 22.1811,7.867 21.2051,7.867 C19.7441,7.867 18.4781,8.249 17.4451,9 C15.2561,10.596 14.8951,13.208 14.6581,14.938 C14.6351,15.104 14.6071,15.303 14.5781,15.497 C14.3831,15.526 14.1851,15.554 14.0181,15.577 C12.2911,15.815 9.6801,16.175 8.0861,18.356 C6.4941,20.546 6.9551,23.138 7.2601,24.854 C7.2891,25.022 7.3251,25.223 7.3571,25.42 C7.1831,25.506 7.0081,25.592 6.8581,25.664 C5.2831,26.427 2.9001,27.58 2.0621,30.164 C1.2301,32.722 2.4221,34.946 3.2911,36.571 C3.3731,36.725 3.4721,36.908 3.5651,37.09 C3.4321,37.22 3.2971,37.351 3.1811,37.461 C1.9151,38.678 0.0001,40.519 0.0001,43.247 C0.0001,45.977 1.9151,47.815 3.1811,49.032 C3.2971,49.143 3.4321,49.272 3.5651,49.403 C3.4721,49.585 3.3731,49.769 3.2911,49.923 C2.4221,51.546 1.2321,53.769 2.0621,56.328 C2.9001,58.913 5.2831,60.066 6.8611,60.829 C7.0101,60.9 7.1861,60.986 7.3591,61.073 C7.3281,61.269 7.2921,61.469 7.2621,61.636 C6.9571,63.353 6.4951,65.945 8.0841,68.13 C9.6781,70.319 12.2931,70.678 14.0211,70.916 C14.1881,70.938 14.3871,70.966 14.5801,70.995 C14.6091,71.189 14.6371,71.387 14.6601,71.553 C14.8971,73.282 15.2581,75.896 17.4431,77.488 C18.4811,78.241 19.7461,78.622 21.2051,78.622 C22.1841,78.622 23.1151,78.457 23.9381,78.311 C24.1171,78.278 24.3121,78.244 24.5021,78.213 C24.5881,78.385 24.6741,78.562 24.7451,78.71 C25.5081,80.287 26.6621,82.672 29.2481,83.511 C29.8091,83.692 30.4021,83.785 31.0101,83.785 C32.8441,83.785 34.4001,82.952 35.6501,82.283 C35.8051,82.201 35.9901,82.102 36.1721,82.008 C36.3031,82.142 36.4341,82.277 36.5441,82.393 C37.7621,83.659 39.6001,85.573 42.3301,85.573 C45.0571,85.573 46.8951,83.66 48.1121,82.394 C48.2231,82.278 48.3531,82.142 48.4851,82.008 C48.6681,82.103 48.8521,82.201 49.0071,82.284 C50.2571,82.953 51.8121,83.785 53.6441,83.785 C54.2541,83.785 54.8481,83.692 55.4111,83.509 C57.9921,82.673 59.1461,80.289 59.9101,78.712 C59.9821,78.563 60.0681,78.386 60.1541,78.213 C60.3461,78.244 60.5431,78.279 60.7231,78.311 C61.5441,78.457 62.4751,78.623 63.4511,78.623 C64.9121,78.623 66.1771,78.241 67.2111,77.489 C69.3981,75.897 69.7591,73.283 69.9961,71.553 C70.0191,71.387 70.0471,71.191 70.0761,70.997 C70.2691,70.967 70.4691,70.941 70.6351,70.917 C72.3651,70.679 74.9771,70.318 76.5701,68.131 C78.1581,65.949 77.6991,63.358 77.3941,61.642 C77.3631,61.473 77.3281,61.271 77.2971,61.073 C77.4691,60.986 77.6461,60.9 77.7951,60.829 C79.3711,60.066 81.7531,58.914 82.5931,56.33 C83.4241,53.77 82.2341,51.547 81.3671,49.925 C81.2831,49.771 81.1851,49.586 81.0921,49.404 C81.2251,49.274 81.3611,49.143 81.4751,49.032 C82.7431,47.815 84.6581,45.977 84.6581,43.247 C84.6581,40.519 82.7431,38.678 81.4761,37.461 C81.3611,37.351 81.2251,37.22 81.0921,37.089 C81.1851,36.907 81.2831,36.724 81.3671,36.569 C82.2361,34.945 83.4261,32.721 82.5931,30.161 C81.7521,27.578 79.3711,26.426 77.7951,25.663 C77.6461,25.591 77.4711,25.507 77.2991,25.42 C77.3311,25.224 77.3671,25.022 77.3961,24.854 C77.7011,23.138 78.1621,20.544 76.5701,18.36 C74.9801,16.175 72.3671,15.815 70.6391,15.577 C70.4711,15.554 70.2731,15.526 70.0781,15.497 C70.0491,15.303 70.0211,15.105 69.9981,14.938 C69.7611,13.21 69.4001,10.599 67.2151,9.005 C66.1811,8.251 64.9141,7.869 63.4511,7.869 C62.4751,7.869 61.5451,8.034 60.7251,8.18 C60.5441,8.212 60.3461,8.247 60.1561,8.278 C60.0701,8.105 59.9841,7.928 59.9121,7.78 C59.1491,6.203 57.9961,3.821 55.4121,2.981 C54.8501,2.798 54.2561,2.705 53.6481,2.705 C51.8121,2.705 50.2561,3.539 49.0041,4.209 C48.8501,4.291 48.6681,4.39 48.4861,4.483 C48.3551,4.349 48.2251,4.212 48.1131,4.097 C46.8961,2.831 45.0571,0.917 42.3301,0.917 M42.3301,4.917 C44.2771,4.917 45.9281,8.463 47.7971,8.757 C47.8921,8.772 47.9901,8.779 48.0901,8.779 C49.7891,8.779 51.9771,6.705 53.6481,6.705 C53.8301,6.705 54.0071,6.729 54.1761,6.785 C56.0141,7.383 56.4841,11.264 58.1821,12.129 C58.5251,12.304 58.9361,12.368 59.3871,12.368 C60.6421,12.368 62.2021,11.869 63.4511,11.869 C63.9961,11.869 64.4821,11.964 64.8591,12.238 C66.4121,13.37 65.6621,17.203 67.0171,18.558 C68.3711,19.913 72.2091,19.164 73.3381,20.715 C74.4651,22.262 72.5721,25.679 73.4471,27.395 C74.3121,29.091 78.1911,29.562 78.7891,31.399 C79.3771,33.205 76.5181,35.864 76.8181,37.782 C77.1111,39.647 80.6581,41.299 80.6581,43.247 C80.6581,45.197 77.1111,46.843 76.8181,48.712 C76.5181,50.629 79.3751,53.288 78.7891,55.093 C78.1911,56.932 74.3101,57.4 73.4451,59.1 C72.5701,60.815 74.4611,64.233 73.3361,65.777 C72.2051,67.331 68.3711,66.581 67.0141,67.937 C65.6601,69.288 66.4101,73.125 64.8571,74.254 C64.4821,74.527 63.9961,74.623 63.4511,74.623 C62.2021,74.623 60.6411,74.122 59.3871,74.122 C58.9351,74.122 58.5241,74.187 58.1821,74.362 C56.4821,75.228 56.0121,79.11 54.1721,79.706 C54.0041,79.761 53.8271,79.785 53.6441,79.785 C51.9781,79.785 49.7891,77.713 48.0881,77.713 C47.9881,77.713 47.8901,77.721 47.7931,77.736 C45.9261,78.027 44.2771,81.573 42.3301,81.573 C40.3791,81.573 38.7301,78.027 36.8631,77.736 C36.7661,77.721 36.6681,77.713 36.5681,77.713 C34.8671,77.713 32.6801,79.785 31.0101,79.785 C30.8281,79.785 30.6501,79.761 30.4821,79.706 C28.6441,79.11 28.1741,75.228 26.4761,74.36 C26.1351,74.186 25.7241,74.121 25.2751,74.121 C24.0201,74.121 22.4571,74.622 21.2051,74.622 C20.6601,74.622 20.1741,74.527 19.7991,74.254 C18.2461,73.124 18.9961,69.288 17.6401,67.933 C16.2851,66.579 12.4491,67.33 11.3181,65.777 C10.1931,64.231 12.0861,60.813 11.2131,59.1 C10.3441,57.4 6.4631,56.93 5.8671,55.093 C5.2811,53.288 8.1391,50.629 7.8401,48.712 C7.5471,46.843 4.0001,45.197 4.0001,43.247 C4.0001,41.299 7.5471,39.647 7.8401,37.782 C8.1391,35.864 5.2791,33.205 5.8671,31.399 C6.4631,29.563 10.3421,29.091 11.2091,27.393 C12.0841,25.679 10.1911,22.262 11.3161,20.715 C12.4491,19.164 16.2851,19.913 17.6391,18.558 C18.9941,17.203 18.2441,13.367 19.7971,12.236 C20.1731,11.963 20.6591,11.867 21.2051,11.867 C22.4551,11.867 24.0161,12.367 25.2711,12.367 C25.7221,12.367 26.1321,12.303 26.4741,12.129 C28.1721,11.261 28.6421,7.383 30.4821,6.785 C30.6501,6.729 30.8281,6.705 31.0101,6.705 C32.6811,6.705 34.8671,8.779 36.5701,8.779 C36.6701,8.779 36.7681,8.772 36.8631,8.757 C38.7301,8.463 40.3791,4.917 42.3301,4.917" id="Fill-4" fill="#282D33" mask="url(#mask-2)"></path>
                </g>
                <path d="M68.8281,43.2466 C68.8281,57.8786 56.9631,69.7466 42.3321,69.7466 C27.6951,69.7466 15.8301,57.8786 15.8301,43.2466 C15.8301,28.6086 27.6951,16.7466 42.3321,16.7466 C56.9631,16.7466 68.8281,28.6086 68.8281,43.2466" id="Fill-7" fill="#FFFFFF"></path>
                <path d="M42.332,18.7466 C28.821,18.7466 17.83,29.7376 17.83,43.2466 C17.83,56.7556 28.821,67.7466 42.332,67.7466 C55.839,67.7466 66.828,56.7556 66.828,43.2466 C66.828,29.7376 55.839,18.7466 42.332,18.7466 M42.332,71.7466 C26.615,71.7466 13.83,58.9616 13.83,43.2466 C13.83,27.5316 26.615,14.7466 42.332,14.7466 C58.045,14.7466 70.828,27.5316 70.828,43.2466 C70.828,58.9616 58.045,71.7466 42.332,71.7466" id="Fill-9" fill="#282D33"></path>
                <polygon id="Fill-11" fill="#E4C695" points="42.3301 29.4693 46.6701 38.2623 56.3731 39.6713 49.3511 46.5183 51.0081 56.1823 42.3301 51.6193 33.6481 56.1823 35.3071 46.5183 28.2851 39.6713 37.9881 38.2623"></polygon>
                <path d="M32.582,41.0684 L37.456,45.8204 L36.305,52.5264 L42.33,49.3604 L48.353,52.5264 L47.203,45.8194 L52.076,41.0684 L45.342,40.0904 L42.33,33.9874 L39.316,40.0904 L32.582,41.0684 Z M53.663,59.8374 L42.33,53.8784 L30.992,59.8374 L33.157,47.2154 L23.988,38.2744 L36.66,36.4344 L42.33,24.9514 L47.998,36.4344 L60.67,38.2744 L51.5,47.2164 L53.663,59.8374 Z" id="Fill-13" fill="#282D33"></path>
            </g>
        </g>
    </g>
</svg>