<?xml version="1.0" encoding="UTF-8" standalone="no"?>
<svg width="102px" height="96px" viewBox="0 0 102 96" version="1.1" xmlns="http://www.w3.org/2000/svg" xmlns:xlink="http://www.w3.org/1999/xlink">
    <!-- Generator: Sketch 39.1 (31720) - http://www.bohemiancoding.com/sketch -->
    <title>selltoday</title>
    <desc>Created with Sketch.</desc>
    <defs>
        <polygon id="path-1" points="69.0438 0.626 0 0.626 0 45.2785 69.0438 45.2785 69.0438 0.626"></polygon>
        <polygon id="path-3" points="0 96.3745 101.376 96.3745 101.376 1.0005 0 1.0005"></polygon>
    </defs>
    <g id="Page-1" stroke="none" stroke-width="1" fill="none" fill-rule="evenodd">
        <g id="selltoday" transform="translate(0.000000, -1.000000)">
            <path d="M67.0439,40.312 C67.0439,42.15 65.5409,43.653 63.7019,43.653 L5.3419,43.653 C3.5039,43.653 1.9999,42.15 1.9999,40.312 L1.9999,6.344 C1.9999,4.502 3.5039,3 5.3419,3 L63.7019,3 C65.5409,3 67.0439,4.502 67.0439,6.344 L67.0439,40.312 L67.0439,40.312 Z" id="Fill-1" fill="#FFFFFF"></path>
            <g id="Group-5" transform="translate(0.000000, 0.374500)">
                <mask id="mask-2" fill="white">
                    <use xlink:href="#path-1"></use>
                </mask>
                <g id="Clip-4"></g>
                <path d="M5.3418,4.6255 C4.6018,4.6255 3.9998,5.2295 3.9998,5.9695 L3.9998,39.9375 C3.9998,40.6755 4.6018,41.2785 5.3418,41.2785 L63.7018,41.2785 C64.4428,41.2785 65.0438,40.6755 65.0438,39.9375 L65.0438,5.9695 C65.0438,5.2295 64.4428,4.6255 63.7018,4.6255 L5.3418,4.6255 Z M63.7018,45.2785 L5.3418,45.2785 C2.3958,45.2785 -0.0002,42.8815 -0.0002,39.9375 L-0.0002,5.9695 C-0.0002,3.0225 2.3958,0.6255 5.3418,0.6255 L63.7018,0.6255 C66.6478,0.6255 69.0438,3.0225 69.0438,5.9695 L69.0438,39.9375 C69.0438,42.8815 66.6478,45.2785 63.7018,45.2785 L63.7018,45.2785 Z" id="Fill-3" fill="#282D33" mask="url(#mask-2)"></path>
            </g>
            <path d="M37.207,22.6152 C37.207,27.3612 33.359,31.2072 28.613,31.2072 C23.87,31.2072 20.023,27.3612 20.023,22.6152 C20.023,17.8692 23.87,14.0232 28.613,14.0232 C33.359,14.0232 37.207,17.8692 37.207,22.6152" id="Fill-6" fill="#E4C695"></path>
            <path d="M49.0205,22.6152 C49.0205,27.3612 45.1735,31.2072 40.4275,31.2072 C35.6835,31.2072 31.8365,27.3612 31.8365,22.6152 C31.8365,17.8692 35.6835,14.0232 40.4275,14.0232 C45.1735,14.0232 49.0205,17.8692 49.0205,22.6152" id="Fill-8" fill="#AEB5B6"></path>
            <path d="M28.6133,33.207 L28.6133,29.207 C32.2503,29.207 35.2073,26.25 35.2073,22.615 C35.2073,18.98 32.2503,16.023 28.6133,16.023 L28.6133,12.023 C34.4553,12.023 39.2073,16.774 39.2073,22.615 C39.2073,28.456 34.4553,33.207 28.6133,33.207" id="Fill-10" fill="#282D33"></path>
            <mask id="mask-4" fill="white">
                <use xlink:href="#path-3"></use>
            </mask>
            <g id="Clip-13"></g>
            <polygon id="Fill-12" fill="#282D33" mask="url(#mask-4)" points="13.041 24.8835 17.337 24.8835 17.337 20.8835 13.041 20.8835"></polygon>
            <polygon id="Fill-14" fill="#282D33" mask="url(#mask-4)" points="51.706 24.8835 56.003 24.8835 56.003 20.8835 51.706 20.8835"></polygon>
            <polygon id="Fill-15" fill="#FFFFFF" mask="url(#mask-4)" points="32.824 94.3745 99.376 94.3745 99.376 56.8565 32.824 56.8565"></polygon>
            <path d="M34.824,92.3745 L97.376,92.3745 L97.376,58.8565 L34.824,58.8565 L34.824,92.3745 Z M30.824,96.3745 L101.376,96.3745 L101.376,54.8565 L30.824,54.8565 L30.824,96.3745 Z" id="Fill-16" fill="#282D33" mask="url(#mask-4)"></path>
            <path d="M42.9365,88.2167 C42.3275,86.3637 40.8495,84.9247 38.9825,84.3627 L38.9825,66.7857 C40.8155,66.2307 42.2815,64.8237 42.9075,63.0127 L89.2925,63.0127 C89.9195,64.8237 91.3855,66.2307 93.2175,66.7857 L93.2175,84.3637 C91.3495,84.9247 89.8725,86.3637 89.2635,88.2167 L42.9365,88.2167 Z" id="Fill-17" fill="#AEB5B6" mask="url(#mask-4)"></path>
            <path d="M72.7021,75.6152 C72.7021,79.2612 69.7441,82.2162 66.0981,82.2162 C62.4541,82.2162 59.5001,79.2612 59.5001,75.6152 C59.5001,71.9682 62.4541,69.0132 66.0981,69.0132 C69.7441,69.0132 72.7021,71.9682 72.7021,75.6152" id="Fill-18" fill="#FFFFFF" mask="url(#mask-4)"></path>
            <path d="M66.0986,71.0136 C63.5626,71.0136 61.4996,73.0776 61.4996,75.6156 C61.4996,78.1526 63.5626,80.2156 66.0986,80.2156 C68.6366,80.2156 70.7026,78.1526 70.7026,75.6156 C70.7026,73.0776 68.6366,71.0136 66.0986,71.0136 M66.0986,84.2156 C61.3566,84.2156 57.4996,80.3576 57.4996,75.6156 C57.4996,70.8726 61.3566,67.0136 66.0986,67.0136 C70.8426,67.0136 74.7026,70.8726 74.7026,75.6156 C74.7026,80.3576 70.8426,84.2156 66.0986,84.2156" id="Fill-19" fill="#282D33" mask="url(#mask-4)"></path>
            <path d="M78.2891,75.6152 L89.1521,75.6152" id="Fill-20" fill="#FFFFFF" mask="url(#mask-4)"></path>
            <polygon id="Fill-21" fill="#282D33" mask="url(#mask-4)" points="78.289 77.6155 89.152 77.6155 89.152 73.6155 78.289 73.6155"></polygon>
            <path d="M53.91,75.6152 L43.049,75.6152" id="Fill-22" fill="#FFFFFF" mask="url(#mask-4)"></path>
            <polygon id="Fill-23" fill="#282D33" mask="url(#mask-4)" points="43.049 77.6155 53.91 77.6155 53.91 73.6155 43.049 73.6155"></polygon>
            <polygon id="Fill-24" fill="#282D33" mask="url(#mask-4)" points="5.0957 66.0444 2.2707 63.2144 11.2497 54.2444 20.2277 63.2144 17.3997 66.0444 11.2497 59.8984"></polygon>
            <path d="M25.4766,78.4589 L18.6796,78.4589 C13.3696,78.4589 9.0506,74.1399 9.0506,68.8309 L9.0506,59.4499 L13.0506,59.4499 L13.0506,68.8309 C13.0506,71.9339 15.5766,74.4589 18.6796,74.4589 L25.4766,74.4589 L25.4766,78.4589 Z" id="Fill-25" fill="#282D33" mask="url(#mask-4)"></path>
            <polygon id="Fill-26" fill="#282D33" mask="url(#mask-4)" points="91.8105 47.9868 82.8315 39.0148 85.6615 36.1858 91.8105 42.3318 97.9625 36.1858 100.7905 39.0158"></polygon>
            <path d="M94.0098,42.7802 L90.0098,42.7802 L90.0098,33.3992 C90.0098,30.2962 87.4848,27.7712 84.3808,27.7712 L77.5818,27.7712 L77.5818,23.7712 L84.3808,23.7712 C89.6908,23.7712 94.0098,28.0902 94.0098,33.3992 L94.0098,42.7802 Z" id="Fill-27" fill="#282D33" mask="url(#mask-4)"></path>
        </g>
    </g>
</svg>