<?xml version="1.0" encoding="utf-8"?>
<!-- Generator: Adobe Illustrator 16.0.0, SVG Export Plug-In . SVG Version: 6.00 Build 0)  -->
<!DOCTYPE svg PUBLIC "-//W3C//DTD SVG 1.1//EN" "http://www.w3.org/Graphics/SVG/1.1/DTD/svg11.dtd">
<svg version="1.1" id="Layer_1" xmlns="http://www.w3.org/2000/svg" xmlns:xlink="http://www.w3.org/1999/xlink" x="0px" y="0px"
	 width="50px" height="50px" viewBox="0 0 50 50" enable-background="new 0 0 50 50" xml:space="preserve">

<path fill="none" stroke="#ffffff" stroke-width="2" stroke-linecap="round" stroke-miterlimit="10" d="M5,22.912V47h40V22.806"/>
<rect x="10" y="29" fill="none" stroke="#ffffff" stroke-width="2" stroke-linecap="round" stroke-miterlimit="10" width="16" height="13"/>
<polyline fill="none" stroke="#ffffff" stroke-width="2" stroke-linecap="round" stroke-miterlimit="10" points="31,47 31,29 40,29 
	40,47 "/>
<polyline fill="none" stroke="#ffffff" stroke-width="2" stroke-linecap="round" stroke-miterlimit="10" points="5,12 5,7 45,7 
	45,12 "/>
<path fill="none" stroke="#ffffff" stroke-width="2" stroke-linecap="round" stroke-miterlimit="10" d="M45,12H5c0,0-1,5.015-1,7.5
	S5.015,24,7.5,24c1.422,0,2.675-0.673,3.5-1.703C11.825,23.327,13.078,24,14.5,24s2.675-0.673,3.5-1.703
	C18.825,23.327,20.078,24,21.5,24s2.675-0.673,3.5-1.703C25.825,23.327,27.078,24,28.5,24s2.676-0.673,3.5-1.703
	C32.824,23.327,34.078,24,35.5,24s2.676-0.673,3.5-1.703C39.824,23.327,41.078,24,42.5,24c2.485,0,3.5-2.015,3.5-4.5S45,12,45,12z"
	/>
<line fill="none" stroke="#ffffff" stroke-width="2" stroke-linecap="round" stroke-miterlimit="10" x1="39" y1="22" x2="39" y2="12"/>
<line fill="none" stroke="#ffffff" stroke-width="2" stroke-linecap="round" stroke-miterlimit="10" x1="32" y1="22" x2="32" y2="12"/>
<line fill="none" stroke="#ffffff" stroke-width="2" stroke-linecap="round" stroke-miterlimit="10" x1="25" y1="22" x2="25" y2="12"/>
<line fill="none" stroke="#ffffff" stroke-width="2" stroke-linecap="round" stroke-miterlimit="10" x1="18" y1="22" x2="18" y2="12"/>
<line fill="none" stroke="#ffffff" stroke-width="2" stroke-linecap="round" stroke-miterlimit="10" x1="11" y1="22" x2="11" y2="12"/>
</svg>